<svg width="69" height="69" viewBox="0 0 69 69" fill="none" xmlns="http://www.w3.org/2000/svg"><path d="M47.29 27.341H19.993a.838.838 0 1 0 0 1.677H47.29a.839.839 0 1 0 0-1.677Zm-27.297-4.139h13.648a.838.838 0 1 0 0-1.677H19.993a.838.838 0 1 0 0 1.677Zm27.297 9.293H19.993a.838.838 0 1 0 0 1.677H47.29a.839.839 0 1 0 0-1.677Z" fill="#7DA543"/><path d="M26.211 63.174h-8.735a2.603 2.603 0 0 1-2.6-2.6V16.277c0-1.434 1.166-2.6 2.6-2.6h25.166c.081 0 .161.007.24.018v5.23a4.282 4.282 0 0 0 4.278 4.277h5.23c.01.08.017.16.017.24v14.28a.839.839 0 0 0 1.677 0v-14.28c0-.92-.358-1.784-1.008-2.434l-8-8A3.421 3.421 0 0 0 42.643 12H17.476a4.282 4.282 0 0 0-4.278 4.277v44.297a4.282 4.282 0 0 0 4.278 4.277h8.735a.838.838 0 1 0 0-1.677Zm25.01-41.649H47.16a2.603 2.603 0 0 1-2.6-2.6v-4.062l6.662 6.662Z" fill="#7DA543"/><path d="m63.544 53.05-7.105-11.992a1.838 1.838 0 0 0-2.52-.645l-1.727 1.023a3.283 3.283 0 0 0-1.448 3.828 2.57 2.57 0 0 1-1.809-.02c-1.364-.429-2.401-1.292-4.115-.859-2.909.74-2.82.704-3.084.794-1.703-.97-2.727-1.258-4.535-.559l-1.612.623a2.578 2.578 0 0 1-2.258-.189l-.44-.259a3.276 3.276 0 0 0-1.563-3.358L29.6 40.413a1.841 1.841 0 0 0-2.52.645L19.977 53.05a1.838 1.838 0 0 0 .645 2.52l1.728 1.023c.522.31 1.097.457 1.665.457a3.3 3.3 0 0 0 1.79-.529l.361.213-.76 1.059a2.81 2.81 0 0 0 2.72 4.415c.12.703.505 1.362 1.13 1.81.586.42 1.316.612 2.076.493a2.808 2.808 0 0 0 3.879 2.109c.19.493.52.939.98 1.27a2.814 2.814 0 0 0 3.796-.48l2.02 1.196a2.81 2.81 0 0 0 4.228-2.084l.004.003a2.815 2.815 0 0 0 4.238-2.212 2.818 2.818 0 0 0 3.484-2.431 2.817 2.817 0 0 0 3.445-1.185 2.793 2.793 0 0 0 .305-2.13 2.8 2.8 0 0 0-.571-1.114l1.113-.651a3.271 3.271 0 0 0 2.919-.209l1.728-1.024a1.838 1.838 0 0 0 .645-2.52Zm-40.34 2.1-1.729-1.023a.162.162 0 0 1-.057-.222l7.105-11.993a.162.162 0 0 1 .222-.057l1.728 1.024a1.601 1.601 0 0 1 .562 2.194l-5.638 9.516a1.603 1.603 0 0 1-2.194.561Zm3.823 5.204a1.134 1.134 0 0 1-.26-1.583l1.118-1.557a1.138 1.138 0 0 1 1.583-.26c.508.365.625 1.075.26 1.583l-1.118 1.557a1.136 1.136 0 0 1-1.583.26Zm3.206 2.302a1.136 1.136 0 0 1-.26-1.584l1.117-1.556 1.234-1.719a1.127 1.127 0 0 1 .924-.473 1.131 1.131 0 0 1 1.117.951c.049.3-.021.6-.198.846l-2.351 3.275a1.134 1.134 0 0 1-1.583.26Zm3.205 2.3a1.136 1.136 0 0 1-.26-1.582l2.351-3.275a1.136 1.136 0 0 1 1.584-.26c.508.364.624 1.075.26 1.583l-1.045 1.455-1.306 1.82a1.135 1.135 0 0 1-1.584.26Zm3.73 1.572a1.136 1.136 0 0 1-.26-1.583l.782-1.09a1.136 1.136 0 0 1 1.584-.26c.508.365.624 1.075.26 1.584l-.782 1.088a1.136 1.136 0 0 1-1.584.26Zm18.795-6.686a1.136 1.136 0 0 1-1.555.398l-7.423-4.397a.839.839 0 1 0-.854 1.443l5.61 3.324a1.135 1.135 0 1 1-1.156 1.953l-5.614-3.326a.838.838 0 1 0-.855 1.443l4.134 2.45h.001a1.134 1.134 0 1 1-1.158 1.953l-2.219-1.315h-.001l-1.62-.96a.838.838 0 1 0-.855 1.443l1.62.96a1.135 1.135 0 1 1-1.157 1.953l-1.889-1.12a2.815 2.815 0 0 0-1.888-4.298 2.816 2.816 0 0 0-.994-3.27 2.8 2.8 0 0 0-2.074-.491 2.792 2.792 0 0 0-1.13-1.81 2.816 2.816 0 0 0-3.64.307 2.796 2.796 0 0 0-.8-.89 2.816 2.816 0 0 0-3.108-.113l-.385-.227 5.274-8.902.251.149a4.246 4.246 0 0 0 3.716.308l1.612-.623c.922-.356 1.43-.38 2.343.051a3.754 3.754 0 0 0-.951 2.5v3.718c0 .987.803 1.791 1.79 1.792h.002c.99 0 1.92-.385 2.62-1.085.408-.408.71-.894.89-1.425l11.065 6.553c.26.154.446.4.52.695.076.293.032.598-.122.859Zm6.081-5.715-1.728 1.023c-.76.45-1.743.198-2.193-.561l-2.643-4.46a.839.839 0 0 0-1.443.854l2.643 4.46c.05.085.104.165.16.242l-.735.43a4.247 4.247 0 0 0-.428.29l-11.392-6.746a.839.839 0 0 0-1.265.721c-.009.05.086.912-.595 1.593a2.017 2.017 0 0 1-1.435.595h-.002a.115.115 0 0 1-.113-.115v-3.718c0-.971.668-1.79 1.572-2.02l2.784-.705c1.011-.255 1.582.285 3.095.797a4.239 4.239 0 0 0 3.206-.052l.507.854a.838.838 0 1 0 1.442-.854l-.996-1.683a1.6 1.6 0 0 1 .561-2.193l1.728-1.024a.162.162 0 0 1 .222.057l7.105 11.992a.162.162 0 0 1-.057.223Z" fill="#7DA543"/></svg>