<svg width="69" height="69" viewBox="0 0 69 69" fill="none" xmlns="http://www.w3.org/2000/svg"><path d="m43.154 11.47-.006.155h9.694c1.177 0 2.135.959 2.135 2.136v17.153a2.139 2.139 0 0 1-2.135 2.136H45.7a.83.83 0 1 1 0-1.66h7.142a.477.477 0 0 0 .476-.476V13.76a.477.477 0 0 0-.476-.476H16.039a.477.477 0 0 0-.477.476v4.776a.83.83 0 0 1-1.66 0v-4.775a2.14 2.14 0 0 1 2.137-2.136h15.043l.016-.132a3.27 3.27 0 0 1 5.79-1.651l.107.134.118-.124a5.462 5.462 0 0 1 4.31-1.693 1.51 1.51 0 0 1 1.283.899 5.55 5.55 0 0 1 .448 2.41ZM41.26 9.908l-.036-.098h-.134c-1.23 0-2.37.578-3.101 1.577l-.175.238h3.669l.008-.14a3.89 3.89 0 0 0-.231-1.577Zm-5.526 1.718h.2l-.056-.193a1.597 1.597 0 0 0-1.539-1.148c-.726 0-1.34.485-1.538 1.148l-.057.193h2.99Z" fill="#7DA543" stroke="#fff" stroke-width=".3"/><mask id="a" fill="#fff"><path d="M11.495 55.602c2.28.28 4.82.968 7.553 2.042 4.395 1.729 6.906.328 9.335-1.026 1.84-1.025 3.742-2.086 6.764-2.086 3.339 0 5.275.97 7.148 1.909 1.749.876 3.557 1.783 6.274 1.783 3.268 0 5.284.724 7.062 1.363 1.272.457 2.473.888 3.823.888H66.9a.98.98 0 1 0 0-1.959h-7.446c-1.008 0-1.958-.341-3.16-.773-1.834-.659-4.116-1.479-7.725-1.479-2.253 0-3.71-.73-5.396-1.575-1.48-.74-3.106-1.556-5.42-1.92V45.87c.228-.077.458-.15.69-.215a3.749 3.749 0 0 0 2.098-1.532 5.618 5.618 0 0 0 2.757 1.322 5.63 5.63 0 0 0 5.18-1.777c.444-.49.565-1.176.316-1.79a5.684 5.684 0 0 0-2.415-2.77 5.804 5.804 0 0 0-.199-3.556 1.742 1.742 0 0 0-1.475-1.107 5.798 5.798 0 0 0-6.053 4.107 3.728 3.728 0 0 0-.898-.188V33.2h3.68a.98.98 0 1 0 0-1.96H34.57a5.792 5.792 0 0 0-1.44-4.387 1.743 1.743 0 0 0-1.77-.52 5.8 5.8 0 0 0-4.198 4.907H16.039a.327.327 0 0 1-.327-.326v-8.111a.98.98 0 1 0-1.96 0v8.11A2.289 2.289 0 0 0 16.04 33.2h5.572a5.672 5.672 0 0 0-.323 2.248c.036.613.424 1.167.988 1.411a5.636 5.636 0 0 0 6.015-.968 3.65 3.65 0 0 0 .451 2.627 3.65 3.65 0 0 0 2.181 1.662v2.28a5.79 5.79 0 0 0-5.122-.472 1.742 1.742 0 0 0-1.107 1.475 5.801 5.801 0 0 0 2.308 5.145 5.82 5.82 0 0 0 2.474 1.072c-2.025 2.723-2.73 5.273-2.765 5.401a.976.976 0 0 0-.032.24c-2.04 1.102-3.76 1.74-6.914.5-2.886-1.135-5.587-1.863-8.03-2.164a.979.979 0 1 0-.24 1.945Zm19.428-2.35c-.606.206-1.166.445-1.694.7.369-.816.918-1.855 1.694-2.931v2.23Zm4.871-.668c-.21-.007-.426-.011-.647-.011-.821 0-1.571.068-2.264.184v-3.499c.425-.24.717-.662.79-1.15a13.473 13.473 0 0 1 2.121-1.392v5.868ZM46.915 42.47a3.682 3.682 0 0 1-3.277 1.046 3.717 3.717 0 0 1-1.058-.356 5.845 5.845 0 0 0 2.818-2.022 5.8 5.8 0 0 0 .163-.233 3.71 3.71 0 0 1 1.354 1.566Zm-5.788-4.54a3.856 3.856 0 0 1 3.272-1.54 3.847 3.847 0 0 1-.568 3.57 3.845 3.845 0 0 1-3.273 1.544 3.84 3.84 0 0 1 .569-3.574Zm-2.721 2.67a5.8 5.8 0 0 0 .413 1.846c.055.136.128.262.214.375a1.784 1.784 0 0 1-1.125.95l-.155.046V40.34c.234.042.455.13.653.26Zm-2.612 3.939a15.33 15.33 0 0 0-2.311 1.28 5.892 5.892 0 0 0-.6-1.38v-9.61c.47-.47.86-1.021 1.148-1.63h1.763v11.34ZM29.231 30.85a3.85 3.85 0 0 1 2.524-2.59 3.847 3.847 0 0 1 .72 3.544 3.838 3.838 0 0 1-2.523 2.593 3.84 3.84 0 0 1-.72-3.547Zm-2.581 3.845a3.68 3.68 0 0 1-3.413.439 3.712 3.712 0 0 1 .532-1.935h3.49c.053.243.122.482.206.717-.228.298-.501.56-.815.78Zm3.774 2.817a1.71 1.71 0 0 1-.224-1.151l.035-.007a5.6 5.6 0 0 0 .688-.228v1.922a1.73 1.73 0 0 1-.5-.536Zm-3.786 6.256a3.847 3.847 0 0 1 3.571.569 3.837 3.837 0 0 1 1.543 3.272 3.84 3.84 0 0 1-3.574-.568 3.85 3.85 0 0 1-1.54-3.273Z"/></mask><path d="M11.495 55.602c2.28.28 4.82.968 7.553 2.042 4.395 1.729 6.906.328 9.335-1.026 1.84-1.025 3.742-2.086 6.764-2.086 3.339 0 5.275.97 7.148 1.909 1.749.876 3.557 1.783 6.274 1.783 3.268 0 5.284.724 7.062 1.363 1.272.457 2.473.888 3.823.888H66.9a.98.98 0 1 0 0-1.959h-7.446c-1.008 0-1.958-.341-3.16-.773-1.834-.659-4.116-1.479-7.725-1.479-2.253 0-3.71-.73-5.396-1.575-1.48-.74-3.106-1.556-5.42-1.92V45.87c.228-.077.458-.15.69-.215a3.749 3.749 0 0 0 2.098-1.532 5.618 5.618 0 0 0 2.757 1.322 5.63 5.63 0 0 0 5.18-1.777c.444-.49.565-1.176.316-1.79a5.684 5.684 0 0 0-2.415-2.77 5.804 5.804 0 0 0-.199-3.556 1.742 1.742 0 0 0-1.475-1.107 5.798 5.798 0 0 0-6.053 4.107 3.728 3.728 0 0 0-.898-.188V33.2h3.68a.98.98 0 1 0 0-1.96H34.57a5.792 5.792 0 0 0-1.44-4.387 1.743 1.743 0 0 0-1.77-.52 5.8 5.8 0 0 0-4.198 4.907H16.039a.327.327 0 0 1-.327-.326v-8.111a.98.98 0 1 0-1.96 0v8.11A2.289 2.289 0 0 0 16.04 33.2h5.572a5.672 5.672 0 0 0-.323 2.248c.036.613.424 1.167.988 1.411a5.636 5.636 0 0 0 6.015-.968 3.65 3.65 0 0 0 .451 2.627 3.65 3.65 0 0 0 2.181 1.662v2.28a5.79 5.79 0 0 0-5.122-.472 1.742 1.742 0 0 0-1.107 1.475 5.801 5.801 0 0 0 2.308 5.145 5.82 5.82 0 0 0 2.474 1.072c-2.025 2.723-2.73 5.273-2.765 5.401a.976.976 0 0 0-.032.24c-2.04 1.102-3.76 1.74-6.914.5-2.886-1.135-5.587-1.863-8.03-2.164a.979.979 0 1 0-.24 1.945Zm19.428-2.35c-.606.206-1.166.445-1.694.7.369-.816.918-1.855 1.694-2.931v2.23Zm4.871-.668c-.21-.007-.426-.011-.647-.011-.821 0-1.571.068-2.264.184v-3.499c.425-.24.717-.662.79-1.15a13.473 13.473 0 0 1 2.121-1.392v5.868ZM46.915 42.47a3.682 3.682 0 0 1-3.277 1.046 3.717 3.717 0 0 1-1.058-.356 5.845 5.845 0 0 0 2.818-2.022 5.8 5.8 0 0 0 .163-.233 3.71 3.71 0 0 1 1.354 1.566Zm-5.788-4.54a3.856 3.856 0 0 1 3.272-1.54 3.847 3.847 0 0 1-.568 3.57 3.845 3.845 0 0 1-3.273 1.544 3.84 3.84 0 0 1 .569-3.574Zm-2.721 2.67a5.8 5.8 0 0 0 .413 1.846c.055.136.128.262.214.375a1.784 1.784 0 0 1-1.125.95l-.155.046V40.34c.234.042.455.13.653.26Zm-2.612 3.939a15.33 15.33 0 0 0-2.311 1.28 5.892 5.892 0 0 0-.6-1.38v-9.61c.47-.47.86-1.021 1.148-1.63h1.763v11.34ZM29.231 30.85a3.85 3.85 0 0 1 2.524-2.59 3.847 3.847 0 0 1 .72 3.544 3.838 3.838 0 0 1-2.523 2.593 3.84 3.84 0 0 1-.72-3.547Zm-2.581 3.845a3.68 3.68 0 0 1-3.413.439 3.712 3.712 0 0 1 .532-1.935h3.49c.053.243.122.482.206.717-.228.298-.501.56-.815.78Zm3.774 2.817a1.71 1.71 0 0 1-.224-1.151l.035-.007a5.6 5.6 0 0 0 .688-.228v1.922a1.73 1.73 0 0 1-.5-.536Zm-3.786 6.256a3.847 3.847 0 0 1 3.571.569 3.837 3.837 0 0 1 1.543 3.272 3.84 3.84 0 0 1-3.574-.568 3.85 3.85 0 0 1-1.54-3.273Z" fill="#7DA543" stroke="#fff" stroke-width=".6" mask="url(#a)"/><path d="M1.473 58.19a.83.83 0 0 1-.15-1.164c1.359-1.765 3.341-2.854 5.906-3.228a.83.83 0 0 1 .24 1.642c-2.107.308-3.738 1.178-4.832 2.599a.828.828 0 0 1-1.164.151Zm.507 9H66.9a.83.83 0 1 1 0 1.66H1.98a.83.83 0 1 1 0-1.66Zm29.847-7.474a.83.83 0 0 1 .83-.83h1.263a.83.83 0 1 1 0 1.66h-1.263a.83.83 0 0 1-.83-.83Zm5.575 1.901a.83.83 0 0 1 .83-.83h2.071a.83.83 0 1 1 0 1.66h-2.072a.83.83 0 0 1-.83-.83Zm-25.356-.372h-1.333a.83.83 0 1 1 0-1.66h1.333a.83.83 0 1 1 0 1.66Zm39.216 2.349a.83.83 0 0 1 .83-.83h2.065a.83.83 0 1 1 0 1.66H52.09a.83.83 0 0 1-.83-.83Zm-36.179 0a.83.83 0 0 1 .83-.83h3.383a.83.83 0 1 1 0 1.66h-3.384a.83.83 0 0 1-.83-.83ZM48 24.24l-.123-.086a5.046 5.046 0 0 0 .518-4.882 1.498 1.498 0 0 0-1.298-.909l.902 5.877Zm0 0-.123-.086a5.044 5.044 0 0 1-4.891 2.111.632.632 0 0 0-.045-.01l-.03-.005-.029.006-.029.006a5.15 5.15 0 0 1-.762.058c-1.64 0-3.181-.79-4.144-2.166a5.046 5.046 0 0 1-.52-4.882c.222-.524.732-.88 1.3-.909a5.046 5.046 0 0 1 4.072 1.73l.113.129.113-.13a5.047 5.047 0 0 1 4.072-1.729l.902 5.877Zm-8.977-4.224-.108-.001.514 3.1-.123.087a3.397 3.397 0 0 0 2.403 1.435l.206.024-.042-.204a5.026 5.026 0 0 1 .124-2.53l.019-.06-.03-.055a3.398 3.398 0 0 0-2.963-1.795Zm4.596 4.544.036.1h.108a3.396 3.396 0 0 0 2.754-1.458c.637-.909.79-2.048.427-3.085l-.036-.102-.108.001a3.397 3.397 0 0 0-2.753 1.456 3.398 3.398 0 0 0-.428 3.088Zm-14.503-5.423h-8.201a.83.83 0 1 1 0-1.66h8.201a.83.83 0 1 1 0 1.66Zm3.774 1.492a.83.83 0 1 1 0 1.66H20.915a.83.83 0 1 1 0-1.66H32.89Zm-12.805 5.739a.83.83 0 0 1 .83-.83h4.904a.83.83 0 1 1 0 1.66h-4.904a.83.83 0 0 1-.83-.83Z" fill="#7DA543" stroke="#fff" stroke-width=".3"/></svg>