<svg width="69" height="69" viewBox="0 0 69 69" fill="none" xmlns="http://www.w3.org/2000/svg"><path d="M21.486 15.041a2.22 2.22 0 0 0-2.218-2.217 2.22 2.22 0 0 0-2.217 2.217 2.22 2.22 0 0 0 2.218 2.217 2.22 2.22 0 0 0 2.217-2.217Zm-5.99 0a3.777 3.777 0 0 1 3.772-3.773 3.777 3.777 0 0 1 3.774 3.773 3.778 3.778 0 0 1-3.774 3.773 3.777 3.777 0 0 1-3.772-3.773Zm5.84 16.794h.15v-2.03H13.59v2.03h7.745Zm1.705-2.808v3.586c0 .43-.348.778-.777.778h-9.451a.778.778 0 0 1-.778-.778v-3.586c0-.43.348-.778.778-.778h9.45c.43 0 .778.348.778.778Z" fill="#7DA543" stroke="#fff" stroke-width=".3"/><mask id="a" fill="#fff"><path d="M62.304 12.702h-5.89c-1.026 0-1.92.57-2.383 1.411H29.31v-.588a.928.928 0 0 0-.737-.908l-2.261-.476-.012-.03 1.262-1.935a.928.928 0 0 0-.121-1.163L25.297 6.87a.928.928 0 0 0-1.163-.121L22.198 8.01a2.845 2.845 0 0 1-.03-.012l-.476-2.261A.928.928 0 0 0 20.785 5h-3.033a.928.928 0 0 0-.908.737l-.476 2.26-.03.013-1.935-1.262a.928.928 0 0 0-1.163.12l-2.144 2.145a.928.928 0 0 0-.12 1.163l1.261 1.935-.012.03-2.261.476a.928.928 0 0 0-.737.908v.588h-.024a4.47 4.47 0 0 0-4.465 4.465V47.44a4.47 4.47 0 0 0 4.465 4.464h3.515c.448 3.233 3.288 5.688 6.55 5.688a6.57 6.57 0 0 0 2.701-.58l-2.098 8.212c-.834 3.26 4.36 4.368 5.16 1.237l3.721-14.557h3.021v13.939c0 1.358 1.14 2.498 2.498 2.498 1.358 0 2.498-1.14 2.498-2.498V51.904h3.02l3.721 14.557c.8 3.13 5.995 2.024 5.161-1.237l-3.404-13.32H59.34a4.47 4.47 0 0 0 4.465-4.464V27.392a.928.928 0 1 0-1.856 0V47.44a2.612 2.612 0 0 1-2.608 2.608H25.818c-.453-3.21-3.217-5.687-6.55-5.687-3.262 0-6.101 2.454-6.55 5.687H9.203a2.612 2.612 0 0 1-2.609-2.608V20.49h4.235a.925.925 0 0 0 .267.578l2.144 2.144c.31.31.796.361 1.163.121l1.936-1.262.03.012.475 2.262c.09.429.47.736.908.736h3.033a.928.928 0 0 0 .907-.736l.477-2.262.03-.012 1.935 1.262c.367.24.853.19 1.163-.12l2.144-2.145a.925.925 0 0 0 .267-.578h25.654l-8.65 8.65-4.443-4.442a1.802 1.802 0 0 0-2.533-.001l-2.884 2.884a.928.928 0 1 0 1.312 1.312l2.838-2.838 4.444 4.443c.692.692 1.84.694 2.532 0l12.627-12.627a.928.928 0 0 0-.656-1.584h-1.535c-1.116 0-1.115-1.73 0-1.73h5.89a.84.84 0 0 1 .84.84v5.889a.873.873 0 0 1-.866.866.867.867 0 0 1-.865-.866v-1.534a.928.928 0 0 0-1.584-.656L44.713 34.212l-4.445-4.444a1.794 1.794 0 0 0-2.532 0l-7.615 7.617c-.78.78-2.013-.434-1.223-1.225l4.174-4.173a.928.928 0 0 0-1.312-1.313l-4.174 4.174c-1.081 1.081-1.037 2.885.08 3.922 1.057.981 2.75.947 3.768-.074l7.568-7.569 4.444 4.443a1.803 1.803 0 0 0 2.532.001L59.631 21.92a2.726 2.726 0 0 0 2.648 2.09c1.482 0 2.721-1.24 2.721-2.722v-5.89a2.699 2.699 0 0 0-2.696-2.695Zm-39.07 53.3c-.206.804-1.8.596-1.565-.319l2.676-10.47a6.588 6.588 0 0 0 1.473-3.309h1.02l-3.604 14.097Zm11.68-.16c0 .827-1.285.828-1.285 0V51.904h1.284v13.938Zm11.96-.159c.233.913-1.36 1.123-1.566.318l-3.603-14.097h1.647l3.522 13.78Zm-28.68-19.345a4.765 4.765 0 0 1 5.835 4.637v.003a4.765 4.765 0 0 1-4.76 4.758c-2.605 0-4.76-2.158-4.76-4.76a4.735 4.735 0 0 1 3.685-4.638Zm-11.6-27.76a2.612 2.612 0 0 1 2.609-2.61h.024v.59c0 .438.308.817.737.907l2.261.476.013.03-.434.664h-5.21v-.058Zm17.923 2.79-1.734-1.13c-.629-.41-2.172.237-2.325.964l-.426 2.024h-1.527l-.426-2.024c-.155-.736-1.704-1.37-2.325-.964l-1.734 1.13-1.08-1.079 1.131-1.733c.41-.63-.237-2.173-.963-2.326l-2.025-.426v-1.526l2.025-.426c.735-.155 1.368-1.704.963-2.326l-1.13-1.733 1.08-1.08 1.732 1.13c.63.411 2.173-.236 2.326-.963l.426-2.024h1.527l.426 2.024c.155.736 1.704 1.37 2.326.964l1.733-1.13 1.08 1.079-1.131 1.733c-.41.63.237 2.173.963 2.326l2.025.426v1.526l-2.025.426c-.735.155-1.369 1.705-.963 2.326l1.13 1.733-1.08 1.08Zm31.265-3.298-.565.565H26.733l-.433-.664.012-.03 2.26-.476c.43-.09.738-.47.738-.908v-.588h24.439a2.743 2.743 0 0 0 2.033 2.101Z"/></mask><path d="M62.304 12.702h-5.89c-1.026 0-1.92.57-2.383 1.411H29.31v-.588a.928.928 0 0 0-.737-.908l-2.261-.476-.012-.03 1.262-1.935a.928.928 0 0 0-.121-1.163L25.297 6.87a.928.928 0 0 0-1.163-.121L22.198 8.01a2.845 2.845 0 0 1-.03-.012l-.476-2.261A.928.928 0 0 0 20.785 5h-3.033a.928.928 0 0 0-.908.737l-.476 2.26-.03.013-1.935-1.262a.928.928 0 0 0-1.163.12l-2.144 2.145a.928.928 0 0 0-.12 1.163l1.261 1.935-.012.03-2.261.476a.928.928 0 0 0-.737.908v.588h-.024a4.47 4.47 0 0 0-4.465 4.465V47.44a4.47 4.47 0 0 0 4.465 4.464h3.515c.448 3.233 3.288 5.688 6.55 5.688a6.57 6.57 0 0 0 2.701-.58l-2.098 8.212c-.834 3.26 4.36 4.368 5.16 1.237l3.721-14.557h3.021v13.939c0 1.358 1.14 2.498 2.498 2.498 1.358 0 2.498-1.14 2.498-2.498V51.904h3.02l3.721 14.557c.8 3.13 5.995 2.024 5.161-1.237l-3.404-13.32H59.34a4.47 4.47 0 0 0 4.465-4.464V27.392a.928.928 0 1 0-1.856 0V47.44a2.612 2.612 0 0 1-2.608 2.608H25.818c-.453-3.21-3.217-5.687-6.55-5.687-3.262 0-6.101 2.454-6.55 5.687H9.203a2.612 2.612 0 0 1-2.609-2.608V20.49h4.235a.925.925 0 0 0 .267.578l2.144 2.144c.31.31.796.361 1.163.121l1.936-1.262.03.012.475 2.262c.09.429.47.736.908.736h3.033a.928.928 0 0 0 .907-.736l.477-2.262.03-.012 1.935 1.262c.367.24.853.19 1.163-.12l2.144-2.145a.925.925 0 0 0 .267-.578h25.654l-8.65 8.65-4.443-4.442a1.802 1.802 0 0 0-2.533-.001l-2.884 2.884a.928.928 0 1 0 1.312 1.312l2.838-2.838 4.444 4.443c.692.692 1.84.694 2.532 0l12.627-12.627a.928.928 0 0 0-.656-1.584h-1.535c-1.116 0-1.115-1.73 0-1.73h5.89a.84.84 0 0 1 .84.84v5.889a.873.873 0 0 1-.866.866.867.867 0 0 1-.865-.866v-1.534a.928.928 0 0 0-1.584-.656L44.713 34.212l-4.445-4.444a1.794 1.794 0 0 0-2.532 0l-7.615 7.617c-.78.78-2.013-.434-1.223-1.225l4.174-4.173a.928.928 0 0 0-1.312-1.313l-4.174 4.174c-1.081 1.081-1.037 2.885.08 3.922 1.057.981 2.75.947 3.768-.074l7.568-7.569 4.444 4.443a1.803 1.803 0 0 0 2.532.001L59.631 21.92a2.726 2.726 0 0 0 2.648 2.09c1.482 0 2.721-1.24 2.721-2.722v-5.89a2.699 2.699 0 0 0-2.696-2.695Zm-39.07 53.3c-.206.804-1.8.596-1.565-.319l2.676-10.47a6.588 6.588 0 0 0 1.473-3.309h1.02l-3.604 14.097Zm11.68-.16c0 .827-1.285.828-1.285 0V51.904h1.284v13.938Zm11.96-.159c.233.913-1.36 1.123-1.566.318l-3.603-14.097h1.647l3.522 13.78Zm-28.68-19.345a4.765 4.765 0 0 1 5.835 4.637v.003a4.765 4.765 0 0 1-4.76 4.758c-2.605 0-4.76-2.158-4.76-4.76a4.735 4.735 0 0 1 3.685-4.638Zm-11.6-27.76a2.612 2.612 0 0 1 2.609-2.61h.024v.59c0 .438.308.817.737.907l2.261.476.013.03-.434.664h-5.21v-.058Zm17.923 2.79-1.734-1.13c-.629-.41-2.172.237-2.325.964l-.426 2.024h-1.527l-.426-2.024c-.155-.736-1.704-1.37-2.325-.964l-1.734 1.13-1.08-1.079 1.131-1.733c.41-.63-.237-2.173-.963-2.326l-2.025-.426v-1.526l2.025-.426c.735-.155 1.368-1.704.963-2.326l-1.13-1.733 1.08-1.08 1.732 1.13c.63.411 2.173-.236 2.326-.963l.426-2.024h1.527l.426 2.024c.155.736 1.704 1.37 2.326.964l1.733-1.13 1.08 1.079-1.131 1.733c-.41.63.237 2.173.963 2.326l2.025.426v1.526l-2.025.426c-.735.155-1.369 1.705-.963 2.326l1.13 1.733-1.08 1.08Zm31.265-3.298-.565.565H26.733l-.433-.664.012-.03 2.26-.476c.43-.09.738-.47.738-.908v-.588h24.439a2.743 2.743 0 0 0 2.033 2.101Z" fill="#7DA543" stroke="#fff" stroke-width=".6" mask="url(#a)"/><path d="M39.642 43.998h17.585a.778.778 0 1 1 0 1.555H39.642a.778.778 0 1 1 0-1.555Zm7.16-4.071h10.425a.778.778 0 0 1 0 1.556H46.802a.778.778 0 1 1 0-1.556Zm-34.767-3.79c0-.43.348-.778.778-.778h6.455a.778.778 0 1 1 0 1.556h-6.455a.778.778 0 0 1-.778-.778Zm8.012 16.09a.778.778 0 1 1-1.556 0v-2.502a.778.778 0 1 1 1.556 0v2.502Z" fill="#7DA543" stroke="#fff" stroke-width=".3"/></svg>