<svg width="69" height="69" viewBox="0 0 69 69" fill="none" xmlns="http://www.w3.org/2000/svg"><path d="m58.011 62.575.165.144V57.43c0-.822.67-1.492 1.492-1.492h3.623a2.88 2.88 0 0 0 2.875-2.876v-4.898a.867.867 0 1 1 1.734 0v4.898a4.615 4.615 0 0 1-4.61 4.61h-3.38v5.576c0 1.25-1.525 1.944-2.468 1.127l-7.712-6.679-.028-.024h-10.67a.867.867 0 1 1 0-1.734h10.76c.359 0 .705.13.976.364l7.243 6.273Z" fill="#7DA543" stroke="#fff" stroke-width=".2"/><path d="M44.146 28.766v.1H63.29a4.615 4.615 0 0 1 4.61 4.61V43.95a.867.867 0 1 1-1.734 0V33.475A2.88 2.88 0 0 0 63.29 30.6H44.146v10.87a4.615 4.615 0 0 1-4.61 4.609H27.588v6.984a2.88 2.88 0 0 0 2.876 2.876h4.355a.867.867 0 0 1 0 1.734h-4.355a4.615 4.615 0 0 1-4.61-4.61v-6.985h-5.556l-.028.024-7.712 6.68.065.075-.065-.076c-.944.818-2.468.122-2.468-1.127v-5.576H6.71a4.615 4.615 0 0 1-4.61-4.61V21.88a4.615 4.615 0 0 1 4.61-4.61h4.7a.867.867 0 0 1 0 1.735h-4.7a2.879 2.879 0 0 0-2.876 2.875v19.59a2.879 2.879 0 0 0 2.875 2.876h3.623c.822 0 1.491.669 1.491 1.491v5.288l.166-.143 7.242-6.272c.271-.235.618-.365.977-.365h19.328a2.879 2.879 0 0 0 2.876-2.875V21.88a2.879 2.879 0 0 0-2.876-2.875H15.624a.867.867 0 0 1 0-1.734h23.912a4.615 4.615 0 0 1 4.61 4.61v6.885Z" fill="#7DA543" stroke="#fff" stroke-width=".2"/><path d="M60.652 36.462H48.707a.867.867 0 1 1 0-1.733h11.945a.867.867 0 1 1 0 1.733Zm0 7.202H48.707a.867.867 0 1 1 0-1.733h11.945a.867.867 0 1 1 0 1.733ZM32.98 50.867a.867.867 0 0 1 0-1.734h27.672a.867.867 0 1 1 0 1.734H32.98ZM24 38.633a.878.878 0 1 1-1.755 0 .878.878 0 0 1 1.755 0Zm-.785-15.84a4.518 4.518 0 0 1 4.407 4.266 4.468 4.468 0 0 1-1.232 3.34 4.528 4.528 0 0 1-2.322 1.302l-.078.017v3.022a.867.867 0 0 1-1.734 0v-3.805c0-.478.388-.866.867-.866a2.75 2.75 0 0 0 2.01-.864 2.752 2.752 0 0 0 .758-2.056 2.772 2.772 0 0 0-5.54.149.867.867 0 0 1-1.733 0 4.504 4.504 0 0 1 4.598-4.504Z" fill="#7DA543" stroke="#fff" stroke-width=".2"/></svg>