<svg width="69" height="69" viewBox="0 0 69 69" fill="none" xmlns="http://www.w3.org/2000/svg"><path d="M5.816 23.324h-.1v41.891c0 .643.522 1.167 1.164 1.167h56.24c.642 0 1.164-.524 1.164-1.167v-17.91a.808.808 0 0 1 1.616 0v17.91a2.785 2.785 0 0 1-2.78 2.783H6.88a2.785 2.785 0 0 1-2.78-2.783v-48.43a2.785 2.785 0 0 1 2.78-2.783h56.24a2.785 2.785 0 0 1 2.78 2.783v26.28a.808.808 0 0 1-1.616 0V23.326H20.007a.808.808 0 1 1 0-1.617h44.277v-4.923c0-.643-.522-1.167-1.164-1.167H6.88c-.642 0-1.164.524-1.164 1.167v4.923H15.77a.808.808 0 0 1 0 1.616H5.816Z" fill="#7DA543" stroke="#fff" stroke-width=".2"/><path d="m58.094 40.735-.01-.09a1.52 1.52 0 0 0-1.042-1.298l-9.457-3.126a1.256 1.256 0 0 0-1.287.307 1.26 1.26 0 0 0-.308 1.29l12.104 2.917Zm0 0h.967c.221 0 .401-.18.401-.402V34.58a.402.402 0 0 0-.401-.401h-2.782a.808.808 0 0 1 0-1.617h2.782a2.02 2.02 0 0 1 2.018 2.018v5.753a2.02 2.02 0 0 1-2.018 2.018h-1.885l-.029.03-.8.802-.07.07.07.07 1.043 1.046a1.534 1.534 0 0 1 0 2.164l.07.07-.07-.07-1.105 1.107c-.29.29-.673.449-1.082.449-.41 0-.793-.16-1.082-.449l-1.04-1.043-.071-.07-.071.07-1.296 1.298a1.517 1.517 0 0 1-1.434.408 1.52 1.52 0 0 1-1.1-1.01l-1.604-4.873-.023-.069h-5.707a2.02 2.02 0 0 1-2.018-2.018V34.58a2.02 2.02 0 0 1 2.018-2.018H52.04a.808.808 0 0 1 0 1.617H41.775a.402.402 0 0 0-.402.401v5.753c0 .222.18.402.402.402h5.175l-.043-.131-.917-2.786 12.104 2.917Zm-1.979 4.786.07-.07-.07-.07-1.553-1.557a.808.808 0 0 1 0-1.142l1.726-1.73.115-.114-.154-.05-8.317-2.75-.188-.062.062.188 2.743 8.334.05.155.116-.116 1.722-1.726a.808.808 0 0 1 1.145 0l.07-.07-.07.07 1.55 1.554.07.07.071-.07.842-.844ZM35.222 32.44h.1v-1.49c0-.89-.724-1.614-1.614-1.614H12.151c-.89 0-1.614.723-1.614 1.613v1.492h24.685Zm-24.585 6.544h-.1v6.253c0 .89.724 1.614 1.614 1.614h21.557c.89 0 1.614-.724 1.614-1.614v-6.253H22.997a.808.808 0 0 1 0-1.616h12.325v-3.31H10.537v3.31h8.222a.808.808 0 0 1 0 1.616h-8.122Zm26.301-8.035v14.288a3.234 3.234 0 0 1-3.23 3.23H12.151a3.234 3.234 0 0 1-3.23-3.23V30.949a3.234 3.234 0 0 1 3.23-3.23h21.557c1.781 0 3.23 1.45 3.23 3.23Z" fill="#7DA543" stroke="#fff" stroke-width=".2"/><path d="M13.142 42.614h4.103a.808.808 0 0 1 0 1.616h-4.103a.808.808 0 0 1 0-1.616Zm7.736 0h4.103a.808.808 0 1 1 0 1.616h-4.103a.808.808 0 1 1 0-1.616Zm7.736 0h4.103a.808.808 0 0 1 0 1.616h-4.103a.808.808 0 1 1 0-1.616ZM14.268 59.25h.1v-3.58h-3.58v3.58h3.48Zm-5.097-3.783c0-.78.634-1.414 1.414-1.414h3.986c.78 0 1.414.634 1.414 1.414v3.986c0 .78-.635 1.413-1.414 1.413h-3.986c-.78 0-1.414-.634-1.414-1.413v-3.986ZM25.52 59.25h.1v-3.58h-3.58v3.58h3.48Zm-5.097-3.783c0-.78.634-1.414 1.414-1.414h3.986c.78 0 1.413.634 1.413 1.414v3.986c0 .78-.634 1.413-1.413 1.413h-3.986c-.78 0-1.414-.634-1.414-1.413v-3.986Zm38.689 3.783h.1v-3.58h-3.58v3.58h3.48Zm-3.683-5.197h3.986c.78 0 1.414.634 1.414 1.414v3.986c0 .78-.634 1.413-1.414 1.413H55.43c-.78 0-1.414-.634-1.414-1.413v-3.986c0-.78.635-1.414 1.414-1.414ZM33.391 55.67h-.1v3.58h14.67v-3.58H33.39Zm14.772 5.196H33.088c-.78 0-1.413-.634-1.413-1.413v-3.986c0-.78.634-1.414 1.413-1.414h15.075c.78 0 1.414.634 1.414 1.414v3.986c0 .78-.634 1.413-1.414 1.413ZM9.903 18.663a.808.808 0 1 1-1.617 0 .808.808 0 0 1 1.617 0Zm4.131 0a.808.808 0 1 1-1.616 0 .808.808 0 0 1 1.616 0Zm4.132 0a.808.808 0 1 1-1.616 0 .808.808 0 0 1 1.616 0Z" fill="#7DA543" stroke="#fff" stroke-width=".2"/></svg>