<svg width="69" height="69" viewBox="0 0 69 69" fill="none" xmlns="http://www.w3.org/2000/svg">
<path d="M58.011 62.5755L58.1764 62.7188V62.4999V57.431C58.1764 56.6087 58.8457 55.9394 59.6681 55.9394H63.2906C64.8764 55.9394 66.1664 54.6493 66.1664 53.0634V48.1646C66.1664 47.6859 66.5544 47.2978 67.0332 47.2978C67.5121 47.2978 67.9 47.6859 67.8999 48.1646V53.0634C67.8999 55.6051 65.8322 57.673 63.2904 57.673H60.01H59.91V57.773V63.2486C59.91 64.499 58.3851 65.1931 57.442 64.3761L57.442 64.3761L49.73 57.6974L49.7018 57.673H49.6645H39.0322C38.5534 57.673 38.1654 57.2849 38.1654 56.8062C38.1654 56.3275 38.5534 55.9394 39.0322 55.9394H49.792C50.1506 55.9394 50.4974 56.0687 50.7684 56.3034L50.7684 56.3034L58.011 62.5755Z" fill="#7DA543" stroke="white" stroke-width="0.2"/>
<path d="M44.1457 28.7656V28.8656H44.2457H63.2905C65.8321 28.8656 67.9 30.9336 67.8999 33.4752V43.9512C67.8999 44.4299 67.5119 44.818 67.0331 44.818C66.5543 44.818 66.1663 44.4299 66.1663 43.9512V33.4752C66.1663 31.8894 64.8763 30.5992 63.2904 30.5992H44.2455H44.1455V30.6992V41.4686C44.1455 44.0102 42.0777 46.078 39.5361 46.078H27.6879H27.5879V46.178V53.0633C27.5879 54.6492 28.8779 55.9393 30.4638 55.9393H34.8186C35.2973 55.9393 35.6854 56.3274 35.6854 56.8061C35.6854 57.2848 35.2973 57.6729 34.8186 57.6729H30.4638C27.9222 57.6729 25.8543 55.605 25.8543 53.0633V46.178V46.078H25.7543H20.3354H20.2981L20.2699 46.1024L12.5578 52.7811L12.6233 52.8567L12.5578 52.7811C11.6137 53.5987 10.0899 52.9031 10.0899 51.6536V46.178V46.078H9.98987H6.70946C4.16787 46.078 2.1 44.0102 2.1 41.4686V21.8804C2.1 19.3388 4.16787 17.2709 6.70946 17.2709H11.4102C11.8889 17.2709 12.277 17.659 12.277 18.1377C12.277 18.6164 11.8889 19.0045 11.4102 19.0045H6.70946C5.1236 19.0045 3.83359 20.2945 3.83359 21.8804V41.4687C3.83359 43.0546 5.1236 44.3446 6.70946 44.3446H10.3319C11.1542 44.3446 11.8235 45.0138 11.8235 45.8362V50.905V51.1239L11.9889 50.9806L19.2314 44.7086L19.2314 44.7085C19.5025 44.4737 19.8493 44.3444 20.2079 44.3444H39.5361C41.1219 44.3444 42.4119 43.0544 42.4119 41.4686V21.8804C42.4119 20.2945 41.1219 19.0045 39.5361 19.0045H15.6237C15.145 19.0045 14.7569 18.6164 14.7569 18.1377C14.7569 17.659 15.145 17.2709 15.6237 17.2709H39.5362C42.0777 17.2709 44.1457 19.3388 44.1457 21.8804V28.7656Z" fill="#7DA543" stroke="white" stroke-width="0.2"/>
<path d="M60.6524 36.4623H48.707C48.2282 36.4623 47.8402 36.0742 47.8402 35.5955C47.8402 35.1168 48.2282 34.7287 48.707 34.7287H60.6524C61.1312 34.7287 61.5192 35.1168 61.5192 35.5955C61.5192 36.0742 61.1312 36.4623 60.6524 36.4623Z" fill="#7DA543" stroke="white" stroke-width="0.2"/>
<path d="M60.6524 43.6644H48.707C48.2282 43.6644 47.8402 43.2764 47.8402 42.7976C47.8402 42.3189 48.2282 41.9308 48.707 41.9308H60.6524C61.1312 41.9308 61.5192 42.3189 61.5192 42.7976C61.5192 43.2763 61.1312 43.6644 60.6524 43.6644Z" fill="#7DA543" stroke="white" stroke-width="0.2"/>
<path d="M32.9805 50.8666C32.5018 50.8666 32.1137 50.4785 32.1137 49.9998C32.1137 49.5211 32.5018 49.133 32.9805 49.133H60.6524C61.1312 49.133 61.5192 49.5211 61.5192 49.9998C61.5192 50.4785 61.1312 50.8666 60.6524 50.8666H32.9805Z" fill="#7DA543" stroke="white" stroke-width="0.2"/>
<path d="M24.0004 38.6325C24.0004 39.1171 23.6075 39.51 23.1229 39.51C22.6383 39.51 22.2454 39.1171 22.2454 38.6325C22.2454 38.1479 22.6383 37.755 23.1229 37.755C23.6075 37.755 24.0004 38.1479 24.0004 38.6325Z" fill="#7DA543" stroke="white" stroke-width="0.2"/>
<path d="M23.2153 22.793L23.2154 22.793C25.5644 22.8402 27.5002 24.7142 27.6217 27.0587C27.6866 28.3075 27.2492 29.4931 26.3899 30.3983C25.7633 31.0584 24.9482 31.5103 24.0685 31.7008L23.9897 31.7179V31.7985V34.74C23.9897 35.2187 23.6016 35.6068 23.1229 35.6068C22.6442 35.6068 22.2561 35.2187 22.2561 34.74V30.9355C22.2561 30.4568 22.6442 30.0687 23.1229 30.0687C23.8897 30.0687 24.6039 29.7617 25.1327 29.2047C25.6613 28.6481 25.9304 27.9173 25.8906 27.1486L25.8906 27.1486C25.8157 25.7069 24.6255 24.5554 23.1804 24.5263L23.1804 24.5263C21.7769 24.4985 20.5716 25.5223 20.378 26.9096C20.3602 27.037 20.3513 27.1674 20.3513 27.2973C20.3513 27.776 19.9632 28.1641 19.4845 28.1641C19.0058 28.1641 18.6177 27.776 18.6177 27.2973C18.6177 27.0876 18.6323 26.8766 18.6611 26.6702C18.976 24.4139 20.9323 22.7458 23.2153 22.793Z" fill="#7DA543" stroke="white" stroke-width="0.2"/>
</svg>
