<svg width="69" height="69" viewBox="0 0 69 69" fill="none" xmlns="http://www.w3.org/2000/svg">
<path d="M57.8304 31.8274C57.7195 31.8274 57.6087 31.8307 57.498 31.8372C56.893 29.8637 54.9053 28.4492 52.5939 28.4492C52.4244 28.4492 52.253 28.4568 52.0867 28.4718C51.8972 28.4889 51.7221 28.5806 51.6002 28.7267C51.4782 28.8728 51.4193 29.0614 51.4364 29.251C51.4534 29.4406 51.5451 29.6156 51.6913 29.7376C51.8374 29.8595 52.026 29.9185 52.2156 29.9014C52.3399 29.8903 52.4667 29.8845 52.5939 29.8845C54.4514 29.8845 56.0132 31.1045 56.2265 32.7207C56.2392 32.8173 56.2715 32.9104 56.3214 32.9941C56.3712 33.0779 56.4376 33.1506 56.5166 33.2079C56.5955 33.2651 56.6852 33.3057 56.7803 33.3271C56.8754 33.3485 56.9739 33.3503 57.0697 33.3324C57.3209 33.286 57.5757 33.2626 57.8311 33.2627C59.8483 33.2627 61.4892 34.7019 61.4892 36.4711C61.4812 36.9252 61.372 37.3719 61.1695 37.7785C60.967 38.1851 60.6764 38.5414 60.3187 38.8214C60.2416 38.8842 60.1784 38.9624 60.1332 39.0509C60.0879 39.1395 60.0615 39.2364 60.0557 39.3357C60.0499 39.435 60.0648 39.5344 60.0995 39.6276C60.1341 39.7208 60.1877 39.8058 60.257 39.8772C60.9108 40.5326 61.2823 41.4178 61.292 42.3436C61.292 44.4411 59.3534 46.1471 56.9703 46.1471C56.8688 46.1471 56.7613 46.143 56.6325 46.1342C56.4746 46.1233 56.3175 46.165 56.1858 46.2528C55.1199 46.9535 53.8702 47.3225 52.5947 47.3133C51.0282 47.3308 49.5106 46.7684 48.3338 45.7345C48.2637 45.6715 48.1818 45.623 48.0929 45.5917C48.004 45.5603 47.9098 45.5468 47.8157 45.5519C47.7216 45.557 47.6294 45.5806 47.5444 45.6213C47.4594 45.662 47.3833 45.719 47.3203 45.7892C47.2573 45.8593 47.2088 45.9412 47.1775 46.0301C47.1462 46.119 47.1327 46.2132 47.1378 46.3073C47.1428 46.4014 47.1664 46.4936 47.2071 46.5786C47.2478 46.6636 47.3049 46.7397 47.375 46.8027C48.4192 47.7308 49.6981 48.3545 51.0723 48.6058V54.5411C51.0732 54.9632 50.919 55.3709 50.6391 55.6868C50.2256 56.1213 49.9229 56.649 49.7564 57.2253C49.7299 57.331 49.728 57.4414 49.7506 57.5481C49.7733 57.6547 49.8199 57.7548 49.887 57.8408C49.9541 57.9267 50.0399 57.9962 50.1379 58.044C50.2359 58.0919 50.3434 58.1167 50.4525 58.1168H55.9245C56.0353 58.1168 56.1446 58.0911 56.2438 58.0419C56.343 57.9926 56.4294 57.921 56.4964 57.8328C56.5633 57.7445 56.6089 57.642 56.6296 57.5331C56.6503 57.4243 56.6455 57.3122 56.6156 57.2055C56.4522 56.6262 56.1953 56.0773 55.8553 55.5806C55.6489 55.2935 55.541 54.9473 55.5479 54.5938V50.1381C55.5479 49.9478 55.4723 49.7653 55.3378 49.6307C55.2032 49.4961 55.0206 49.4205 54.8303 49.4205C54.64 49.4205 54.4574 49.4961 54.3228 49.6307C54.1883 49.7653 54.1127 49.9478 54.1127 50.1381V54.5958C54.1062 55.2621 54.3164 55.9125 54.7115 56.4491C54.7668 56.5233 54.8169 56.6012 54.8613 56.6824H51.6746L51.7105 56.6416C52.2241 56.0631 52.5074 55.3161 52.5066 54.5425V48.7475C52.5356 48.7475 52.5645 48.7495 52.5936 48.7495C54.0694 48.7577 55.518 48.3525 56.7755 47.5799C56.8428 47.5822 56.9072 47.5833 56.9692 47.5833C60.1438 47.5833 62.7262 45.233 62.7262 42.3445C62.7223 41.2947 62.3817 40.2739 61.7545 39.4321C62.4991 38.6253 62.9159 37.5697 62.9234 36.4718C62.9237 33.9105 60.6389 31.8274 57.8304 31.8274Z" fill="#7DA543"/>
<path d="M45.4386 27.0112C45.319 27.0112 45.1994 27.0152 45.0798 27.0233C44.8357 26.1009 44.3482 25.261 43.6684 24.5914C42.9886 23.9219 42.1414 23.4473 41.2154 23.2172C41.0309 23.1731 40.8364 23.2038 40.6745 23.3026C40.5126 23.4015 40.3964 23.5604 40.3513 23.7447C40.3063 23.929 40.336 24.1236 40.4341 24.2861C40.5321 24.4485 40.6905 24.5655 40.8745 24.6114C41.6375 24.8008 42.3249 25.2175 42.8457 25.8064C43.3664 26.3953 43.696 27.1284 43.7907 27.9088C43.8024 28.0077 43.8345 28.103 43.885 28.1887C43.9355 28.2745 44.0032 28.3488 44.084 28.407C44.1647 28.4651 44.2567 28.5058 44.354 28.5266C44.4514 28.5473 44.5519 28.5475 44.6494 28.5273C45.4805 28.3541 46.3455 28.4591 47.111 28.8262C47.8765 29.1932 48.5001 29.8018 48.8855 30.5583C49.2709 31.3147 49.3968 32.1769 49.2438 33.012C49.0907 33.847 48.6672 34.6085 48.0386 35.1791C47.8997 35.3053 47.8158 35.4809 47.8048 35.6682C47.7938 35.8556 47.8566 36.0398 47.9798 36.1813C48.5546 36.8418 48.9272 37.6537 49.0532 38.5202C49.1792 39.3866 49.0531 40.271 48.6901 41.0678C48.3271 41.8646 47.7425 42.5401 47.0061 43.0136C46.2696 43.4872 45.4124 43.7388 44.5369 43.7385C44.4326 43.7385 44.3178 43.7337 44.1859 43.7236C44.0137 43.7104 43.8425 43.7598 43.7037 43.8627C42.5458 44.7199 41.1294 45.1549 39.6899 45.0954C38.2505 45.0359 36.8748 44.4854 35.7916 43.5356C35.6486 43.41 35.4615 43.3465 35.2716 43.3589C35.0816 43.3712 34.9044 43.4586 34.7788 43.6016C34.6533 43.7447 34.5897 43.9318 34.6021 44.1217C34.6145 44.3116 34.7018 44.4889 34.8449 44.6144C35.6005 45.2769 36.4781 45.7856 37.4284 46.1123V58.42C37.4297 58.9835 37.2237 59.5279 36.8496 59.9494C36.357 60.4663 35.9957 61.0939 35.7961 61.7794C35.7696 61.8852 35.7676 61.9957 35.7902 62.1024C35.8128 62.2091 35.8595 62.3092 35.9266 62.3952C35.9937 62.4812 36.0795 62.5507 36.1775 62.5986C36.2755 62.6464 36.3832 62.6713 36.4922 62.6713H43.2584C43.3691 62.6713 43.4784 62.6456 43.5776 62.5963C43.6768 62.5471 43.7632 62.4755 43.8301 62.3872C43.897 62.299 43.9426 62.1964 43.9633 62.0876C43.984 61.9788 43.9792 61.8667 43.9493 61.7601C43.9154 61.6384 43.6003 60.5501 43.0372 59.8073C42.7598 59.4231 42.6144 58.9593 42.6227 58.4854V48.3602C42.6227 48.1698 42.5471 47.9873 42.4125 47.8527C42.278 47.7181 42.0954 47.6425 41.9051 47.6425C41.7148 47.6425 41.5322 47.7181 41.3976 47.8527C41.263 47.9873 41.1874 48.1698 41.1874 48.3602V58.4856C41.1796 59.2724 41.4273 60.0405 41.8934 60.6744C42.0208 60.8503 42.1304 61.0384 42.2205 61.236H37.6503C37.7318 61.1264 37.8225 61.0154 37.9223 60.903C38.5301 60.2187 38.8652 59.3349 38.8639 58.4196V46.4586C40.7871 46.7327 42.7431 46.2726 44.3426 45.17C44.4095 45.1726 44.4739 45.1738 44.5365 45.1738C45.6312 45.1741 46.705 44.8747 47.6417 44.3082C48.5784 43.7417 49.3422 42.9297 49.8503 41.9601C50.3584 40.9905 50.5914 39.9004 50.5242 38.8078C50.4569 37.7152 50.0919 36.6618 49.4687 35.7619C50.1278 34.9915 50.5522 34.0483 50.6917 33.0442C50.8312 32.04 50.6799 31.0169 50.2558 30.096C49.8317 29.1752 49.1525 28.3952 48.2988 27.8485C47.445 27.3017 46.4524 27.0112 45.4386 27.0112Z" fill="#7DA543"/>
<path d="M10.0006 41.754C10.9888 42.727 12.1586 43.4963 13.4435 44.0182V47.7655C13.4357 49.2759 13.9122 50.749 14.803 51.9687C15.6939 53.1884 16.9523 54.0905 18.3935 54.5424L18.4853 54.5708C18.921 54.6989 19.3036 54.9644 19.576 55.3278C19.8484 55.6912 19.996 56.1329 19.9967 56.587V64.2768C19.9877 64.9303 19.7405 65.5582 19.3015 66.0424C18.8 66.6166 18.4235 67.289 18.1961 68.0166C18.167 68.1231 18.1628 68.2348 18.184 68.3432C18.2051 68.4515 18.2509 68.5535 18.3178 68.6412C18.3848 68.729 18.4711 68.8001 18.57 68.8491C18.6689 68.898 18.7777 68.9235 18.8881 68.9236H28.3955C28.5048 68.9236 28.6126 68.8986 28.7107 68.8507C28.8089 68.8027 28.8948 68.7329 28.9619 68.6467C29.029 68.5605 29.0755 68.4601 29.0979 68.3532C29.1204 68.2463 29.1181 68.1356 29.0913 68.0297C28.9411 67.4377 28.5324 66.7078 27.8759 65.8605C27.5932 65.4929 27.4136 65.0566 27.3556 64.5965C26.6529 59.1366 26.8102 50.9813 26.9668 46.6044L26.9708 46.4951C26.9748 46.4007 26.9602 46.3064 26.9277 46.2177C26.8952 46.129 26.8455 46.0475 26.7814 45.9781C26.7174 45.9086 26.6402 45.8525 26.5544 45.8129C26.4686 45.7733 26.3759 45.751 26.2814 45.7474C26.187 45.7438 26.0928 45.7588 26.0042 45.7917C25.9156 45.8245 25.8344 45.8746 25.7652 45.9389C25.696 46.0033 25.6401 46.0806 25.6009 46.1666C25.5617 46.2526 25.5398 46.3454 25.5366 46.4399L25.5326 46.5495V46.5513C25.3394 51.9516 25.2517 59.4966 25.932 64.7795C26.0225 65.493 26.3016 66.1694 26.7406 66.739C26.9441 67.0017 27.1219 67.2545 27.2684 67.4879H20.0082C20.1181 67.3127 20.2419 67.1466 20.3783 66.9911C21.0487 66.2447 21.4235 65.2793 21.4324 64.2761V56.587C21.4328 55.8248 21.1867 55.0828 20.7307 54.4719C20.2748 53.861 19.6335 53.414 18.9026 53.1976L18.8235 53.1732C17.6743 52.8119 16.6711 52.0919 15.9611 51.1186C15.2512 50.1454 14.8718 48.9702 14.8788 47.7655V44.4836C16.4336 44.8648 18.0541 44.8921 19.6208 44.5634V49.3275C19.0018 49.1173 18.4647 48.7174 18.0859 48.1846C17.7072 47.6518 17.5059 47.0132 17.5108 46.3595V46.2246C17.5108 46.0342 17.4352 45.8517 17.3006 45.7171C17.166 45.5825 16.9835 45.5069 16.7931 45.5069C16.6028 45.5069 16.4203 45.5825 16.2857 45.7171C16.1511 45.8517 16.0755 46.0342 16.0755 46.2246V46.3595C16.0672 47.4952 16.4856 48.5925 17.248 49.4343C18.0104 50.2761 19.0611 50.8008 20.1921 50.9047L20.2803 50.9122C20.2997 50.9138 20.3191 50.9147 20.3385 50.9147C20.5288 50.9147 20.7113 50.8391 20.8459 50.7046C20.9805 50.57 21.0561 50.3874 21.0561 50.1971V44.1529C21.6946 43.9208 22.3091 43.6276 22.8913 43.2775C24.4726 44.3116 26.3317 44.8385 28.2204 44.7879C30.109 44.7374 31.9373 44.1118 33.461 42.9946C34.9846 41.8775 36.1312 40.322 36.7474 38.536C37.3637 36.75 37.4203 34.8184 36.9097 32.9994C37.9261 31.8202 38.6296 30.4042 38.9554 28.8819C39.2811 27.3595 39.2186 25.7797 38.7737 24.2878C38.3287 22.7959 37.5156 21.4399 36.4092 20.3446C35.3028 19.2494 33.9386 18.4501 32.4423 18.0203C31.9283 15.6499 30.5767 13.5443 28.6356 12.09C26.6944 10.6357 24.2939 9.93022 21.8746 10.103C19.4552 10.2758 17.1793 11.3153 15.4646 13.0307C13.7498 14.7461 12.7112 17.0224 12.5393 19.4418V19.456C12.5393 19.456 12.5377 19.4649 12.5375 19.4698C12.5332 19.6117 12.5072 20.8855 12.9501 21.8448C13.0299 22.0177 13.1751 22.1517 13.3537 22.2175C13.5323 22.2833 13.7297 22.2754 13.9025 22.1957C14.0754 22.1159 14.2094 21.9707 14.2752 21.7921C14.341 21.6135 14.3331 21.4161 14.2534 21.2433C14.0022 20.7004 13.9654 19.8388 13.9721 19.5302C14.1248 17.4221 15.0447 15.443 16.5578 13.9673C18.071 12.4915 20.0725 11.6214 22.1838 11.5215C24.2951 11.4216 26.3698 12.0988 28.0155 13.4251C29.6613 14.7514 30.764 16.6348 31.115 18.7191C31.1384 18.8589 31.2027 18.9887 31.2998 19.092C31.3969 19.1954 31.5223 19.2676 31.6604 19.2997C33.0045 19.6128 34.2422 20.2749 35.2486 21.2192C36.2549 22.1635 36.9944 23.3566 37.3922 24.6781C37.7901 25.9995 37.8323 27.4025 37.5146 28.7455C37.1969 30.0885 36.5305 31.3239 35.5827 32.327C35.4939 32.4211 35.4322 32.5375 35.4041 32.6638C35.376 32.7901 35.3826 32.9217 35.4232 33.0446C35.9454 34.6239 35.9523 36.3284 35.4427 37.9118C34.9332 39.4953 33.9337 40.8759 32.5884 41.8543C31.2432 42.8327 29.6218 43.3583 27.9584 43.3552C26.295 43.3521 24.6756 42.8206 23.3339 41.8372C23.2152 41.7502 23.0725 41.7017 22.9253 41.6985C22.7781 41.6953 22.6334 41.7375 22.511 41.8193C21.1426 42.73 19.5547 43.2562 17.9133 43.3429C16.2719 43.4295 14.6373 43.0734 13.1807 42.3119C11.7241 41.5503 10.4989 40.4112 9.6334 39.0139C8.76788 37.6165 8.29383 36.0122 8.26084 34.3689C8.25894 34.2726 8.23768 34.1776 8.19832 34.0897C8.15895 34.0018 8.1023 33.9227 8.03173 33.8572C7.03233 32.93 6.29069 31.7593 5.87935 30.4596C5.46801 29.1599 5.40106 27.7757 5.68505 26.4423C5.96904 25.109 6.59425 23.8722 7.49951 22.8529C8.40477 21.8336 9.55909 21.0668 10.8496 20.6273C11.0298 20.5661 11.1782 20.4357 11.2623 20.2649C11.3464 20.0942 11.3592 19.897 11.2979 19.7168C11.2366 19.5366 11.1063 19.3882 10.9355 19.3041C10.7648 19.22 10.5676 19.2072 10.3874 19.2685C8.88611 19.7796 7.54026 20.6658 6.47744 21.8429C5.41463 23.02 4.67007 24.4491 4.31437 25.9946C3.95867 27.5401 4.00361 29.1509 4.44493 30.6742C4.88626 32.1974 5.70933 33.5828 6.83613 34.6988C6.95961 37.3664 8.09053 39.8877 10.0006 41.754Z" fill="#7DA543"/>
<path d="M22.1773 19.111C22.0926 19.0696 22.0005 19.0454 21.9065 19.0396C21.8124 19.0338 21.7181 19.0466 21.6289 19.0772C21.5398 19.1079 21.4576 19.1558 21.387 19.2182C21.3164 19.2807 21.2587 19.3564 21.2174 19.4411C20.9317 20.0252 20.8346 20.6836 20.9395 21.3252C21.0445 21.9668 21.3462 22.56 21.803 23.0226C22.2599 23.4853 22.8492 23.7945 23.4894 23.9075C24.1297 24.0205 24.7893 23.9317 25.3769 23.6534C25.9645 23.3752 26.4511 22.9211 26.7693 22.3542C27.0875 21.7872 27.2217 21.1354 27.1532 20.4888C27.0848 19.8423 26.817 19.233 26.3871 18.7453C25.9572 18.2576 25.3863 17.9155 24.7534 17.7665V17.1095C24.7534 16.9192 24.6778 16.7366 24.5432 16.602C24.4086 16.4675 24.2261 16.3918 24.0358 16.3918C23.8454 16.3918 23.6629 16.4675 23.5283 16.602C23.3937 16.7366 23.3181 16.9192 23.3181 17.1095V18.3987C23.3181 18.5891 23.3937 18.7716 23.5283 18.9062C23.6629 19.0408 23.8454 19.1164 24.0358 19.1164C24.3719 19.1164 24.7005 19.2161 24.98 19.4028C25.2595 19.5896 25.4774 19.855 25.606 20.1656C25.7346 20.4762 25.7683 20.8179 25.7027 21.1476C25.6371 21.4773 25.4752 21.7801 25.2375 22.0178C24.9998 22.2555 24.6969 22.4173 24.3672 22.4829C24.0375 22.5485 23.6958 22.5148 23.3853 22.3861C23.0747 22.2574 22.8093 22.0396 22.6226 21.7601C22.4358 21.4805 22.3362 21.1519 22.3362 20.8158C22.3354 20.5578 22.3939 20.3032 22.5072 20.0714C22.5486 19.9867 22.573 19.8946 22.5788 19.8005C22.5847 19.7064 22.5719 19.612 22.5413 19.5228C22.5106 19.4336 22.4627 19.3513 22.4003 19.2807C22.3378 19.21 22.262 19.1524 22.1773 19.111Z" fill="#7DA543"/>
<path d="M41.982 33.4397C41.7932 33.416 41.6027 33.4682 41.4525 33.5849C41.3022 33.7016 41.2044 33.8732 41.1806 34.062C41.167 34.1692 41.1602 34.277 41.1602 34.385C41.1598 34.8572 41.2909 35.3201 41.5388 35.722C41.7867 36.1239 42.1415 36.4488 42.5636 36.6604C42.9857 36.872 43.4584 36.962 43.9287 36.9202C44.399 36.8784 44.8484 36.7065 45.2265 36.4237C45.6047 36.141 45.8967 35.7585 46.0698 35.3192C46.2429 34.8799 46.2903 34.4011 46.2066 33.9364C46.123 33.4717 45.9117 33.0394 45.5963 32.688C45.2809 32.3366 44.874 32.08 44.421 31.9468V31.2176C44.421 31.0273 44.3454 30.8448 44.2108 30.7102C44.0762 30.5756 43.8936 30.5 43.7033 30.5C43.513 30.5 43.3305 30.5756 43.1959 30.7102C43.0613 30.8448 42.9857 31.0273 42.9857 31.2176V32.5596C42.9857 32.75 43.0613 32.9325 43.1959 33.0671C43.3305 33.2017 43.513 33.2773 43.7033 33.2773C43.9225 33.2773 44.1367 33.3422 44.319 33.4639C44.5012 33.5857 44.6433 33.7587 44.7271 33.9612C44.811 34.1637 44.833 34.3864 44.7903 34.6014C44.7475 34.8164 44.642 35.0138 44.4871 35.1688C44.3321 35.3238 44.1347 35.4293 43.9197 35.4721C43.7048 35.5149 43.482 35.4929 43.2795 35.4091C43.077 35.3252 42.904 35.1832 42.7822 35.001C42.6604 34.8187 42.5955 34.6045 42.5955 34.3853C42.5955 34.3374 42.5986 34.2894 42.6046 34.2418C42.6164 34.1483 42.6097 34.0533 42.5848 33.9623C42.56 33.8714 42.5174 33.7862 42.4596 33.7117C42.4017 33.6372 42.3298 33.5748 42.2479 33.5282C42.1659 33.4815 42.0756 33.4514 41.982 33.4397Z" fill="#7DA543"/>
<path d="M54.5988 40.2176C54.7891 40.2176 54.9717 40.142 55.1062 40.0074C55.2408 39.8728 55.3164 39.6903 55.3164 39.4999V38.3876C55.3164 38.1972 55.2408 38.0147 55.1062 37.8801C54.9717 37.7455 54.7891 37.6699 54.5988 37.6699C54.4085 37.6699 54.2259 37.7455 54.0913 37.8801C53.9568 38.0147 53.8811 38.1972 53.8811 38.3876V38.8874C53.4024 39.0294 52.976 39.3094 52.6555 39.6924C52.335 40.0754 52.1345 40.5443 52.0791 41.0407C52.0238 41.537 52.1159 42.0386 52.3441 42.4828C52.5723 42.9271 52.9264 43.2941 53.3621 43.5382C53.7978 43.7822 54.2958 43.8924 54.7938 43.8549C55.2918 43.8175 55.7677 43.634 56.162 43.3275C56.5563 43.021 56.8514 42.6051 57.0106 42.1317C57.1697 41.6583 57.1858 41.1485 57.0567 40.6661C57.0075 40.4822 56.8873 40.3254 56.7224 40.2302C56.5576 40.135 56.3617 40.1091 56.1778 40.1584C55.9939 40.2076 55.8371 40.3278 55.7419 40.4927C55.6467 40.6575 55.6208 40.8534 55.6701 41.0373C55.7303 41.2609 55.7191 41.4978 55.6378 41.7146C55.5566 41.9315 55.4094 42.1174 55.2171 42.2464C55.0247 42.3753 54.7968 42.4407 54.5653 42.4335C54.3339 42.4262 54.1105 42.3466 53.9266 42.2059C53.7427 42.0652 53.6075 41.8704 53.54 41.6489C53.4724 41.4273 53.476 41.1902 53.5502 40.9709C53.6244 40.7515 53.7654 40.5608 53.9535 40.4257C54.1415 40.2906 54.3672 40.2178 54.5988 40.2176Z" fill="#7DA543"/>
<path d="M38.2313 39.354C38.139 39.335 38.0438 39.3345 37.9513 39.3523C37.8587 39.3701 37.7706 39.406 37.6919 39.4579C37.6132 39.5098 37.5455 39.5767 37.4927 39.6547C37.4398 39.7328 37.4029 39.8205 37.384 39.9129C37.2842 40.3968 37.3275 40.8993 37.5086 41.3591C37.6898 41.8188 38.0009 42.2158 38.404 42.5016C38.8071 42.7874 39.2847 42.9496 39.7784 42.9684C40.2722 42.9873 40.7608 42.8618 41.1844 42.6075C41.6081 42.3532 41.9485 41.981 42.1641 41.5364C42.3797 41.0917 42.4611 40.594 42.3984 40.1038C42.3357 39.6137 42.1316 39.1524 41.811 38.7764C41.4905 38.4004 41.0673 38.1258 40.5933 37.9863V37.3763C40.5933 37.186 40.5177 37.0035 40.3831 36.8689C40.2485 36.7343 40.066 36.6587 39.8756 36.6587C39.6853 36.6587 39.5028 36.7343 39.3682 36.8689C39.2336 37.0035 39.158 37.186 39.158 37.3763V38.5994C39.158 38.7897 39.2336 38.9723 39.3682 39.1068C39.5028 39.2414 39.6853 39.317 39.8756 39.317C40.1037 39.3175 40.3261 39.3885 40.5123 39.5203C40.6985 39.652 40.8394 39.8382 40.9156 40.0532C40.9918 40.2682 40.9997 40.5015 40.9382 40.7211C40.8766 40.9408 40.7486 41.136 40.5718 41.2801C40.3949 41.4241 40.1778 41.5099 39.9503 41.5258C39.7227 41.5416 39.4958 41.4867 39.3007 41.3686C39.1056 41.2504 38.9518 41.0748 38.8604 40.8658C38.769 40.6568 38.7445 40.4247 38.7902 40.2012C38.8091 40.1089 38.8097 40.0137 38.7918 39.9212C38.774 39.8286 38.7381 39.7405 38.6862 39.6618C38.6343 39.5832 38.5674 39.5155 38.4894 39.4627C38.4113 39.4099 38.3236 39.3729 38.2313 39.354Z" fill="#7DA543"/>
<path d="M12.9257 25.7617C12.7353 25.7617 12.5528 25.8373 12.4182 25.9719C12.2836 26.1065 12.208 26.289 12.208 26.4794V28.1203C12.208 28.3106 12.2836 28.4931 12.4182 28.6277C12.5528 28.7623 12.7353 28.8379 12.9257 28.8379C13.3081 28.838 13.6793 28.9671 13.9792 29.2045C14.2791 29.4418 14.4901 29.7734 14.5781 30.1456C14.666 30.5177 14.6258 30.9087 14.4639 31.2552C14.302 31.6017 14.0279 31.8833 13.686 32.0546C13.3441 32.2259 12.9543 32.2768 12.5799 32.199C12.2055 32.1213 11.8682 31.9194 11.6228 31.6261C11.3774 31.3328 11.2381 30.9653 11.2276 30.583C11.2171 30.2007 11.3359 29.826 11.5648 29.5197C11.6214 29.4443 11.6625 29.3585 11.6859 29.2672C11.7093 29.1759 11.7145 29.0809 11.7011 28.9876C11.6878 28.8943 11.6562 28.8045 11.6082 28.7235C11.5602 28.6424 11.4967 28.5715 11.4213 28.515C11.3459 28.4584 11.2601 28.4173 11.1688 28.3939C11.0775 28.3705 10.9825 28.3653 10.8892 28.3787C10.7959 28.392 10.7062 28.4236 10.6251 28.4716C10.544 28.5196 10.4731 28.5831 10.4166 28.6585C10.0107 29.1986 9.79014 29.8553 9.78762 30.5309C9.7851 31.2064 10.0008 31.8648 10.4026 32.4079C10.8044 32.951 11.3708 33.3498 12.0176 33.5451C12.6643 33.7403 13.3568 33.7215 13.992 33.4914C14.6272 33.2613 15.1712 32.8322 15.5428 32.2681C15.9145 31.704 16.0941 31.0349 16.0549 30.3604C16.0157 29.686 15.7597 29.0423 15.3251 28.525C14.8905 28.0078 14.3005 27.6447 13.6429 27.4898V26.4794C13.6429 26.2891 13.5674 26.1066 13.4329 25.972C13.2984 25.8375 13.1159 25.7618 12.9257 25.7617Z" fill="#7DA543"/>
<path d="M27.8843 29.8196C27.694 29.8196 27.5114 29.8952 27.3769 30.0298C27.2423 30.1644 27.1667 30.3469 27.1667 30.5372V32.3145C27.1667 32.5048 27.2423 32.6873 27.3769 32.8219C27.5114 32.9565 27.694 33.0321 27.8843 33.0321C28.2205 33.0321 28.5491 33.1317 28.8286 33.3185C29.1081 33.5052 29.326 33.7706 29.4546 34.0812C29.5833 34.3917 29.617 34.7335 29.5514 35.0632C29.4859 35.3928 29.324 35.6957 29.0863 35.9334C28.8487 36.1711 28.5458 36.333 28.2161 36.3986C27.8864 36.4642 27.5447 36.4305 27.2341 36.3019C26.9236 36.1733 26.6581 35.9554 26.4714 35.6759C26.2846 35.3964 26.1849 35.0678 26.1849 34.7317C26.1839 34.4625 26.2477 34.197 26.3708 33.9575C26.4576 33.7882 26.4736 33.5912 26.4153 33.4101C26.3569 33.2289 26.229 33.0783 26.0596 32.9915C25.8902 32.9047 25.6933 32.8887 25.5121 32.947C25.331 33.0054 25.1804 33.1333 25.0936 33.3027C24.7953 33.8833 24.6857 34.5426 24.78 35.1886C24.8742 35.8345 25.1678 36.4349 25.6195 36.9061C26.0713 37.3773 26.6589 37.6957 27.3003 37.8171C27.9418 37.9384 28.605 37.8565 29.1977 37.5829C29.7904 37.3093 30.2829 36.8575 30.6066 36.2907C30.9303 35.7238 31.069 35.07 31.0034 34.4205C30.9379 33.771 30.6712 33.1582 30.2408 32.6675C29.8103 32.1767 29.2374 31.8326 28.602 31.683V30.5372C28.602 30.3469 28.5264 30.1644 28.3918 30.0298C28.2572 29.8952 28.0746 29.8196 27.8843 29.8196Z" fill="#7DA543"/>
</svg>
