<svg width="69" height="69" viewBox="0 0 69 69" fill="none" xmlns="http://www.w3.org/2000/svg">
<path d="M47.2896 27.3415H19.9932C19.5301 27.3415 19.1547 27.7169 19.1547 28.18C19.1547 28.6431 19.5301 29.0185 19.9932 29.0185H47.2897C47.7529 29.0185 48.1283 28.6431 48.1283 28.18C48.1283 27.7169 47.7527 27.3415 47.2896 27.3415Z" fill="#7DA543"/>
<path d="M19.9932 23.2019H33.6413C34.1045 23.2019 34.4799 22.8266 34.4799 22.3634C34.4799 21.9003 34.1045 21.5249 33.6413 21.5249H19.9932C19.5301 21.5249 19.1547 21.9003 19.1547 22.3634C19.1547 22.8267 19.5301 23.2019 19.9932 23.2019Z" fill="#7DA543"/>
<path d="M47.2896 32.4951H19.9932C19.5301 32.4951 19.1547 32.8705 19.1547 33.3336C19.1547 33.7967 19.5301 34.1721 19.9932 34.1721H47.2897C47.7529 34.1721 48.1283 33.7967 48.1283 33.3336C48.1281 32.8705 47.7527 32.4951 47.2896 32.4951Z" fill="#7DA543"/>
<path d="M26.2112 63.174H17.4756C16.0418 63.174 14.8752 62.0075 14.8752 60.5737V16.2773C14.8752 14.8435 16.0418 13.6769 17.4756 13.6769H42.642C42.7232 13.6769 42.8033 13.6844 42.8824 13.6951V18.9246C42.8824 21.2832 44.8013 23.2019 47.1598 23.2019H52.3892C52.4 23.2812 52.4073 23.3613 52.4073 23.4425V37.7216C52.4073 38.1847 52.7827 38.5601 53.2459 38.5601C53.709 38.5601 54.0844 38.1847 54.0844 37.7216V23.4426C54.0844 22.5228 53.7261 21.658 53.0758 21.0076L45.0768 13.0086C44.4264 12.3583 43.5618 12 42.642 12H17.4756C15.117 12 13.1982 13.9189 13.1982 16.2773V60.5737C13.1982 62.9322 15.1171 64.8509 17.4756 64.8509H26.2112C26.6743 64.8509 27.0497 64.4755 27.0497 64.0124C27.0497 63.5493 26.6743 63.174 26.2112 63.174ZM51.2216 21.525H47.1599C45.7261 21.525 44.5595 20.3584 44.5595 18.9246V14.8629L51.2216 21.525Z" fill="#7DA543"/>
<path d="M63.5439 53.0499L56.4392 41.0576C55.9214 40.1833 54.7946 39.8943 53.9197 40.4125L52.1916 41.4364C50.8502 42.231 50.2832 43.8392 50.7438 45.2643C50.1615 45.4753 49.5232 45.4719 48.9354 45.2447C47.5709 44.8154 46.5336 43.9518 44.8203 44.3851C41.9113 45.1258 41.9997 45.0887 41.7365 45.1789C40.0332 44.2091 39.0093 43.9206 37.2011 44.62L35.5893 45.2431C34.8431 45.5315 34.0208 45.4631 33.3313 45.0545L32.8914 44.7953C33.106 43.5092 32.5357 42.152 31.328 41.4366C31.328 41.4366 31.328 41.4366 31.3279 41.4365L29.5999 40.4127C28.7275 39.896 27.5973 40.1853 27.0805 41.0576L19.9756 53.05C19.4578 53.9242 19.7459 55.0514 20.6205 55.5694L22.3485 56.5932C22.8714 56.903 23.4461 57.0503 24.0139 57.0503C24.647 57.0503 25.2712 56.8668 25.8049 56.5212L26.1651 56.7338L25.4047 57.7928C24.4986 59.0551 24.7865 60.8103 26.049 61.7165C26.6328 62.1355 27.3662 62.3269 28.1247 62.2078C28.245 62.9112 28.6304 63.5696 29.2545 64.0178C29.8407 64.4387 30.5708 64.6303 31.3306 64.5106C31.4513 65.2135 31.8365 65.8713 32.4602 66.3192C33.2985 66.921 34.3408 66.9905 35.2093 66.6196C35.3993 67.1132 35.7296 67.559 36.1904 67.8898C37.3936 68.7534 39.0511 68.5282 39.986 67.4093L42.0066 68.6063C43.3429 69.3982 45.067 68.9581 45.8594 67.6203C46.062 67.2783 46.1877 66.9056 46.2336 66.5225L46.2382 66.5253C47.5725 67.3155 49.3005 66.8731 50.0909 65.5391C50.3198 65.1527 50.4453 64.7336 50.4758 64.3135C51.6519 64.6092 52.9336 64.1153 53.5826 63.0198C53.7956 62.6604 53.9191 62.2722 53.9597 61.8816C55.2202 62.3762 56.6934 61.8982 57.4052 60.6967C57.7881 60.0504 57.8964 59.2939 57.7101 58.5661C57.6036 58.1497 57.4076 57.7718 57.1387 57.4526L58.2524 56.8019C59.1946 57.1886 60.2698 57.1267 61.1709 56.593L62.8987 55.5693C63.7733 55.0516 64.0622 53.9246 63.5439 53.0499ZM23.2033 55.1504L21.4753 54.1266C21.3985 54.081 21.373 53.9815 21.4184 53.9047L28.5233 41.9121C28.5691 41.8349 28.669 41.8099 28.7453 41.8553L30.4732 42.879C31.2411 43.334 31.4813 44.3188 31.0347 45.0726L25.3969 54.5889C24.9469 55.3486 23.963 55.6003 23.2033 55.1504ZM27.0269 60.3541C26.5177 59.9885 26.4012 59.2803 26.767 58.7708L27.8846 57.214C28.2407 56.7181 28.9502 56.5824 29.468 56.9541C29.9762 57.3189 30.0927 58.0291 29.728 58.5373L28.6103 60.0941C28.2455 60.6025 27.5349 60.7187 27.0269 60.3541ZM30.2326 62.6556C29.7243 62.2907 29.6078 61.5803 29.9726 61.0722L31.0902 59.5155C31.0902 59.5155 31.0902 59.5155 31.0902 59.5154C31.0902 59.5154 31.0902 59.5153 31.0903 59.5153L32.3237 57.7973C32.5005 57.5511 32.7625 57.3884 33.0615 57.3394C33.1236 57.3291 33.1859 57.3241 33.2477 57.3241C33.483 57.3241 33.712 57.3974 33.9071 57.5373C34.1531 57.7141 34.3159 57.976 34.3648 58.275C34.4139 58.5741 34.3437 58.8744 34.1669 59.1205L31.8158 62.3956C31.4504 62.9049 30.742 63.0215 30.2326 62.6556ZM33.4383 64.9569C32.9303 64.5922 32.8136 63.8824 33.1777 63.3743C33.1779 63.374 33.1781 63.3738 33.1782 63.3736L35.5293 60.0987C35.8939 59.5905 36.6046 59.4739 37.1126 59.8386C37.6208 60.2034 37.7374 60.9137 37.3726 61.4219L36.328 62.8771C36.328 62.8771 36.328 62.8771 36.3279 62.8772L35.0215 64.6969C34.6566 65.2052 33.9466 65.3219 33.4383 64.9569ZM37.1684 66.5275C36.6605 66.1628 36.5438 65.4533 36.9077 64.9451L37.6902 63.8552C38.0549 63.3469 38.7655 63.2306 39.2735 63.5952C39.7816 63.96 39.8983 64.6703 39.5335 65.1786L38.7516 66.2675C38.3869 66.7758 37.6764 66.8924 37.1684 66.5275ZM55.9627 59.842C55.6437 60.3805 54.9463 60.5591 54.4077 60.2401C53.4957 59.6999 47.6127 56.2145 46.9854 55.8429C46.5869 55.6069 46.0727 55.7384 45.8366 56.1368C45.6006 56.5353 45.7321 57.0496 46.1306 57.2856L51.7418 60.61L51.7419 60.6101C52.2806 60.9292 52.4603 61.6244 52.14 62.1652C51.8209 62.704 51.1232 62.8822 50.5848 62.5635C48.5094 61.3339 46.8242 60.3356 44.9705 59.2373C44.5718 59.0013 44.0577 59.1328 43.8217 59.5312C43.5857 59.9297 43.7172 60.444 44.1156 60.68L48.2501 63.1294L48.251 63.13C48.7901 63.4501 48.968 64.145 48.6483 64.6847C48.3292 65.2234 47.6317 65.4019 47.093 65.0828L44.8741 63.7684C44.8739 63.7682 44.8735 63.7681 44.8733 63.7679C44.8731 63.7678 44.8729 63.7677 44.8727 63.7676L43.2534 62.8082C42.8548 62.572 42.3406 62.7035 42.1046 63.1021C41.8686 63.5005 42.0001 64.0148 42.3985 64.2509L44.0181 65.2104C44.0183 65.2105 44.0185 65.2107 44.0188 65.2108C44.5575 65.5299 44.7372 66.225 44.4169 66.7659C44.0977 67.3046 43.4002 67.483 42.8615 67.164L40.9722 66.0448C41.7821 64.795 41.474 63.1109 40.2515 62.2334C39.8925 61.9758 39.4927 61.8153 39.0838 61.7464C39.5175 60.5867 39.1436 59.2327 38.0905 58.4768C37.4671 58.0291 36.7207 57.8744 36.0162 57.9849C35.8908 57.2518 35.4899 56.6096 34.8851 56.1756C33.7475 55.3592 32.2016 55.5161 31.2468 56.482C31.0527 56.1413 30.7849 55.8356 30.446 55.5923C29.5007 54.9139 28.2734 54.9075 27.3376 55.479L26.9534 55.2522L32.227 46.3505L32.478 46.4986C33.5869 47.1554 34.94 47.2924 36.194 46.8074L37.8058 46.1843C38.7281 45.8278 39.2368 45.8046 40.1491 46.2351C39.5522 46.9057 39.1978 47.7862 39.1978 48.7352V52.453C39.1978 53.4404 40.0006 54.2443 40.9873 54.245H40.9898C41.9795 54.245 42.9102 53.8597 43.6103 53.16C44.0184 52.7521 44.3197 52.2658 44.5003 51.735C45.5829 52.3762 54.5278 57.673 55.5648 58.2875C55.8257 58.442 56.0107 58.6888 56.0858 58.9825C56.161 59.2758 56.1172 59.5812 55.9627 59.842ZM62.0443 54.1266L60.3162 55.1504C59.5565 55.6002 58.5726 55.3483 58.1228 54.589L55.4803 50.1287C55.2442 49.7302 54.7296 49.5987 54.3315 49.8345C53.9331 50.0705 53.8015 50.5849 54.0374 50.9833L56.6799 55.4438C56.7297 55.5277 56.7836 55.6076 56.8395 55.6854L56.1049 56.1146C55.9564 56.2025 55.8135 56.2994 55.6769 56.4046L44.2855 49.6586C43.7274 49.3283 43.0198 49.731 43.0198 50.38C43.011 50.4301 43.1064 51.292 42.4248 51.9735C42.0414 52.3566 41.5317 52.5676 40.9896 52.5676C40.9892 52.5676 40.9887 52.5676 40.9883 52.5676C40.9256 52.5676 40.8746 52.516 40.8746 52.4525V48.7347C40.8746 47.7635 41.5428 46.9441 42.4465 46.7153L45.2315 46.0105C46.242 45.7551 46.8132 46.2947 48.3263 46.8069C49.3767 47.2132 50.5188 47.1882 51.5325 46.7552L52.0386 47.6095C52.2747 48.0082 52.7891 48.1396 53.1874 47.9037C53.5859 47.6676 53.7174 47.1533 53.4815 46.7549L52.4847 45.0724C52.0337 44.3111 52.285 43.3301 53.0461 42.8789L54.7742 41.8552C54.8497 41.8103 54.9495 41.8333 54.9963 41.9121L62.101 53.9045C62.1469 53.9818 62.1216 54.0808 62.0443 54.1266Z" fill="#7DA543"/>
</svg>
