<svg width="69" height="69" viewBox="0 0 69 69" fill="none" xmlns="http://www.w3.org/2000/svg">
<path d="M67.7145 8.36787C65.891 6.54372 62.8534 6.54445 61.0296 8.36763L55.0343 14.3612C54.0163 13.9232 52.7885 14.1189 51.9582 14.949C51.1283 15.7788 50.9323 17.0062 51.3704 18.0238L49.981 19.4126C45.3717 16.1628 39.9617 14.4494 34.2838 14.4494C19.4097 14.4494 7 26.8565 7 41.7253C7 56.5942 19.4099 69 34.2838 69C41.4689 69 48.2514 66.2313 53.3821 61.204C53.74 60.8532 53.7458 60.2788 53.3949 59.921C53.0441 59.563 52.4694 59.5576 52.1114 59.9082C47.3222 64.601 40.9908 67.1854 34.2838 67.1854C20.2404 67.1854 8.8152 55.7641 8.8152 41.7253C8.8152 27.686 20.2404 16.264 34.2838 16.264C39.4782 16.264 44.4319 17.7999 48.6771 20.716L47.2771 22.1154C43.42 19.5558 38.9444 18.2069 34.2839 18.2069C28.0965 18.2069 22.2536 20.5887 17.8315 24.9135C17.4733 25.264 17.4669 25.8383 17.8174 26.1965C18.2433 26.5554 18.6711 26.5602 19.1009 26.2106C23.1816 22.2195 28.5738 20.0215 34.2839 20.0215C38.4614 20.0215 42.4773 21.1955 45.9653 23.4267L39.4344 29.9549C38.3899 31.001 38.4269 32.0271 38.2045 33.3346H24.8543C23.3176 33.3346 22.0673 34.5844 22.0673 36.1206C22.0673 37.6568 23.3175 38.9066 24.8543 38.9066H28.6143C29.1501 38.9066 29.5859 39.3423 29.5859 39.878C29.5859 40.4138 29.15 40.8495 28.6129 40.8495C27.0763 40.8495 25.826 42.0993 25.826 43.6355C25.826 45.1717 27.0761 46.4215 28.6129 46.4215H47.4089C48.9457 46.4215 50.1958 45.1717 50.1958 43.6355C50.1958 42.0993 48.9457 40.8495 47.4076 40.8495C46.8718 40.8495 46.4359 40.4136 46.4359 39.878C46.4359 39.3424 46.8718 38.9066 47.4076 38.9066H49.2882C50.8249 38.9066 52.0751 37.6568 52.0751 36.1206C52.0751 34.5844 50.8249 33.3346 49.2882 33.3346H49.254L52.5706 30.0191C54.8142 33.5119 55.9948 37.5365 55.9948 41.7253C55.9948 53.6923 46.2552 63.428 34.2836 63.428C22.3128 63.428 12.5737 53.6922 12.5737 41.7253C12.5737 37.1588 13.9757 32.7902 16.6283 29.0921C16.9204 28.6849 16.827 28.118 16.4195 27.8261C16.0123 27.5342 15.4452 27.6275 15.1531 28.0347C12.2781 32.0429 10.7585 36.7771 10.7585 41.7253C10.7585 54.6929 21.3118 65.2427 34.2836 65.2427C47.256 65.2427 57.81 54.6929 57.81 41.7253C57.81 37.0534 56.4543 32.5697 53.8818 28.7082L55.2813 27.3092C58.2107 31.5601 59.7534 36.5218 59.7534 41.7253C59.7534 47.303 57.9825 52.5987 54.6324 57.0399C54.3306 57.44 54.4103 58.0089 54.8106 58.3106C55.2588 58.6039 55.6825 58.5445 56.0817 58.1324C59.6713 53.3739 61.5687 47.7005 61.5687 41.7253C61.5687 36.0384 59.8482 30.6208 56.5851 26.0059L57.9114 24.6799C59.0658 25.2551 60.1673 25.0963 61.216 24.2032C62.078 23.3414 62.2562 22.0507 61.7504 21.0116L63.6398 19.1228C63.9942 18.7685 63.9942 18.194 63.6398 17.8397C63.2853 17.4854 62.7108 17.4854 62.3562 17.8397L60.5741 19.6212L56.4567 15.5054L62.3133 9.65062C63.6862 8.51319 65.0588 8.51331 66.4312 9.65111C67.5688 11.0229 67.5686 12.3946 66.4308 13.7665L65.1588 15.0378C64.8042 15.3922 64.8042 15.9666 65.1587 16.3209C65.5865 16.6753 66.0143 16.6753 66.4421 16.3209L67.7142 15.0495C69.3131 13.2699 69.5402 10.1901 67.7145 8.36787ZM40.7184 31.2373L52.5151 19.4457L56.5477 23.4769L44.7293 35.2914C44.2306 35.7382 43.6874 35.9605 43.0995 35.9584C42.0058 35.9584 40.9772 36.3844 40.2031 37.1582L37.1293 40.2321C36.686 40.5999 36.2426 40.6002 35.7992 40.2332C35.4311 39.7901 35.4311 39.3473 35.7992 38.9044L38.8524 35.8512C39.6303 35.0734 40.0696 33.9929 40.0511 32.8874C40.0409 32.2738 40.2843 31.6722 40.7184 31.2373ZM49.2882 35.1492C49.8241 35.1492 50.2599 35.585 50.2599 36.1206C50.2599 36.6562 49.8241 37.092 49.2882 37.092H47.4076C45.8708 37.092 44.6207 38.3418 44.6207 39.878C44.6207 41.4142 45.8709 42.664 47.4089 42.664C47.9447 42.664 48.3806 43.0997 48.3806 43.6355C48.3806 44.1712 47.9447 44.6069 47.4089 44.6069H28.6131C28.0772 44.6069 27.6414 44.1711 27.6414 43.6355C27.6414 43.0999 28.0773 42.664 28.6144 42.664C30.1511 42.664 31.4014 41.4142 31.4014 39.878C31.4014 38.3418 30.1512 37.092 28.6144 37.092H24.8544C24.3186 37.092 23.8828 36.6563 23.8828 36.1206C23.8828 35.585 24.3187 35.1492 24.8544 35.1492H36.988L34.5164 37.621C33.4389 38.9193 33.4732 40.4188 34.5159 41.5164C35.6772 42.7389 37.149 42.7022 38.4122 41.5163L41.4869 38.4414C41.918 38.0105 42.4908 37.7732 43.0996 37.7732H43.1167C44.2113 37.7732 45.2397 37.3475 46.013 36.5747L47.4389 35.1492H49.2882ZM59.9323 22.9202C59.4757 23.3766 58.8253 23.2227 58.4481 22.8105L53.2418 17.606C52.8629 17.2272 52.8629 16.6108 53.2417 16.2321C53.6999 15.8533 54.158 15.8533 54.6162 16.2321L59.9323 21.5463C60.3113 21.925 60.3113 22.5414 59.9323 22.9202Z" fill="#7DA543"/>
<path d="M35.1596 24.8473C35.1596 23.311 33.9093 22.0612 32.3725 22.0612C30.8357 22.0612 29.5854 23.311 29.5854 24.8473C29.5854 26.3836 30.8357 27.6334 32.3725 27.6334C33.9093 27.6335 35.1596 26.3837 35.1596 24.8473ZM31.4006 24.8473C31.4006 24.3116 31.8367 23.8757 32.3725 23.8757C32.9084 23.8757 33.3444 24.3116 33.3444 24.8473C33.3444 25.383 32.9084 25.8188 32.3725 25.8188C31.8367 25.8189 31.4006 25.383 31.4006 24.8473Z" fill="#7DA543"/>
<path d="M46.4364 54.909C46.4364 53.3727 45.1862 52.1229 43.6494 52.1229C42.1126 52.1229 40.8623 53.3727 40.8623 54.909C40.8623 56.4454 42.1126 57.6952 43.6494 57.6952C45.1862 57.6952 46.4364 56.4454 46.4364 54.909ZM42.6775 54.909C42.6775 54.3733 43.1134 53.9375 43.6494 53.9375C44.1852 53.9375 44.6212 54.3733 44.6212 54.909C44.6212 55.4448 44.1852 55.8806 43.6494 55.8806C43.1134 55.8806 42.6775 55.4448 42.6775 54.909Z" fill="#7DA543"/>
<path d="M22.975 55.8164C24.5118 55.8164 25.7621 54.5666 25.7621 53.0303C25.7621 51.494 24.5118 50.2442 22.975 50.2442C21.4382 50.2442 20.1879 51.494 20.1879 53.0303C20.1879 54.5665 21.4382 55.8164 22.975 55.8164ZM22.975 52.0586C23.5109 52.0586 23.9469 52.4944 23.9469 53.0302C23.9469 53.5659 23.5109 54.0017 22.975 54.0017C22.4392 54.0017 22.0031 53.5659 22.0031 53.0302C22.0031 52.4944 22.4392 52.0586 22.975 52.0586Z" fill="#7DA543"/>
<path d="M38.0109 53.9375C38.5122 53.9375 38.9185 53.5312 38.9185 53.0302C38.9185 52.5291 38.5122 52.1228 38.0109 52.1228H36.1314C35.6302 52.1228 35.2238 52.5291 35.2238 53.0302C35.2238 53.5312 35.6302 53.9375 36.1314 53.9375H38.0109Z" fill="#7DA543"/>
<path d="M32.9458 57.361C32.5913 57.7153 32.5913 58.2897 32.9458 58.6441L34.2748 59.9726C34.7026 60.3269 35.1304 60.3269 35.5582 59.9726C35.9127 59.6183 35.9127 59.0438 35.5582 58.6895L34.2292 57.361C33.8748 57.0066 33.3001 57.0066 32.9458 57.361Z" fill="#7DA543"/>
<path d="M19.1934 40.4512C18.839 40.0969 18.2643 40.0969 17.9099 40.4512C17.5555 40.8055 17.5555 41.38 17.9099 41.7343L19.2389 43.0628C19.6668 43.4171 20.0946 43.4171 20.5224 43.0628C20.8769 42.7085 20.8769 42.134 20.5224 41.7797L19.1934 40.4512Z" fill="#7DA543"/>
<path d="M30.4703 52.4571L31.7993 51.1286C32.1537 50.7743 32.1537 50.1998 31.7993 49.8455C31.4448 49.4912 30.8701 49.4912 30.5158 49.8455L29.1868 51.174C28.8323 51.5284 28.8323 52.1028 29.1868 52.4571C29.6146 52.8115 30.0424 52.8115 30.4703 52.4571Z" fill="#7DA543"/>
<path d="M26.7114 29.9108L28.0404 28.5823C28.3949 28.228 28.3949 27.6535 28.0404 27.2992C27.686 26.9449 27.1113 26.9449 26.7569 27.2992L25.4279 28.6277C25.0735 28.982 25.0735 29.5565 25.4279 29.9108C25.8556 30.2653 26.2835 30.2653 26.7114 29.9108Z" fill="#7DA543"/>
</svg>
