<svg width="69" height="69" viewBox="0 0 69 69" fill="none" xmlns="http://www.w3.org/2000/svg">
<path d="M21.4859 15.0411V15.0411C21.4859 13.8183 20.4914 12.8238 19.2685 12.8238C18.0458 12.8238 17.0513 13.8183 17.0513 15.0411C17.0513 16.2639 18.0458 17.2584 19.2685 17.2584C20.4913 17.2584 21.4858 16.2639 21.4859 15.0411ZM15.4956 15.0411C15.4956 12.9608 17.1883 11.2682 19.2685 11.2682C21.3488 11.2682 23.0416 12.9608 23.0416 15.0411C23.0416 17.1213 21.3488 18.8141 19.2685 18.8141C17.1883 18.8141 15.4956 17.1213 15.4956 15.0411Z" fill="#7DA543" stroke="white" stroke-width="0.3"/>
<path d="M21.3357 31.8352H21.4857L21.4857 31.6853L21.4858 29.9544L21.4859 29.8044H21.3358H13.7406H13.5906V29.9544V31.6852V31.8352H13.7406H21.3357ZM23.0414 29.0266V32.6131C23.0414 33.0428 22.6932 33.3909 22.2637 33.3909H12.8127C12.383 33.3909 12.0349 33.0428 12.0349 32.6131V29.0266C12.0349 28.5969 12.383 28.2487 12.8127 28.2487H22.2636C22.6933 28.2487 23.0414 28.5969 23.0414 29.0266Z" fill="#7DA543" stroke="white" stroke-width="0.3"/>
<mask id="path-3-inside-1_183_322" fill="white">
<path d="M62.3037 12.702H56.4142C55.3885 12.702 54.4939 13.2728 54.0305 14.1132H29.3096V13.525C29.3096 13.0862 29.0023 12.7075 28.5729 12.6171L26.3119 12.141C26.3078 12.1311 26.3038 12.1212 26.2996 12.1113L27.5618 10.176C27.8015 9.80843 27.7509 9.32323 27.4407 9.01308L25.2966 6.86891C24.9864 6.55864 24.5013 6.50792 24.1336 6.7478L22.1981 8.01015C22.1882 8.00607 22.1785 8.00199 22.1686 7.99778L21.6925 5.7367C21.6022 5.3073 21.2234 5 20.7846 5H17.7523C17.3135 5 16.9348 5.3073 16.8444 5.7367L16.3684 7.99778C16.3585 8.00186 16.3487 8.00595 16.3388 8.01015L14.4034 6.7478C14.0359 6.50805 13.5507 6.55889 13.2404 6.86891L11.0963 9.01296C10.786 9.32335 10.7355 9.80855 10.9751 10.176L12.2375 12.1114C12.2334 12.1213 12.2293 12.1311 12.2251 12.141L9.96404 12.6171C9.53464 12.7074 9.22734 13.0862 9.22734 13.525V14.1132H9.20272C6.74123 14.1132 4.73846 16.1159 4.73846 18.5775V47.4398C4.73846 49.9013 6.74111 51.904 9.20272 51.904H12.7179C13.1664 55.137 16.0059 57.5916 19.2682 57.5916C20.2301 57.5916 21.1437 57.3835 21.9691 57.0128L19.8706 65.2241C19.0373 68.4841 24.2313 69.5916 25.0319 66.4612L28.7524 51.9043H31.7731V65.8426C31.7731 67.2011 32.9126 68.3405 34.2709 68.3405C35.6295 68.3405 36.7688 67.2011 36.7688 65.8426V51.904H39.7897L43.5101 66.4608C44.3099 69.5906 49.5049 68.485 48.6713 65.2238L45.2673 51.904H59.3395C61.801 51.904 63.8037 49.9014 63.8037 47.4398V27.3918C63.8037 26.8793 63.3884 26.464 62.8759 26.464C62.3634 26.464 61.9481 26.8793 61.9481 27.3918V47.4398C61.9481 48.8782 60.7779 50.0484 59.3395 50.0484L25.8179 50.0485C25.3653 46.8387 22.6013 44.361 19.2683 44.361C16.0059 44.361 13.1666 46.815 12.718 50.0484H9.20272C7.76433 50.0484 6.59414 48.8782 6.59414 47.4398V20.4911H10.829C10.847 20.7035 10.9365 20.9096 11.0963 21.0693L13.2404 23.2133C13.5506 23.5233 14.0355 23.5742 14.4033 23.3344L16.3387 22.0721C16.3486 22.0762 16.3585 22.0803 16.3684 22.0845L16.8444 24.3455C16.9347 24.7749 17.3135 25.0822 17.7523 25.0822H20.7846C21.2234 25.0822 21.6021 24.7749 21.6925 24.3455L22.1686 22.0845C22.1785 22.0804 22.1884 22.0763 22.1983 22.0721L24.1336 23.3344C24.5014 23.5743 24.9866 23.5235 25.2966 23.2133L27.4407 21.0693C27.6004 20.9096 27.6898 20.7035 27.7078 20.4911H53.3616L44.7121 29.1406L40.2693 24.6991C39.5778 24.0046 38.4289 24.005 37.7363 24.6977L34.8521 27.5818C34.4896 27.9442 34.4896 28.5317 34.852 28.8939C35.2143 29.2561 35.8018 29.2564 36.1641 28.894L39.0021 26.0562L43.4462 30.4992C44.1382 31.1906 45.2866 31.1927 45.978 30.4991L58.605 17.872C58.8704 17.6065 58.9497 17.2075 58.806 16.8607C58.6625 16.514 58.324 16.2879 57.9488 16.2879H56.4139C55.2981 16.2879 55.2992 14.5577 56.4139 14.5577H62.3035C62.767 14.5577 63.1442 14.9343 63.1442 15.3971V21.2866C63.1442 21.7591 62.7507 22.1525 62.2784 22.1525C61.8011 22.1525 61.4126 21.764 61.4126 21.2866V19.7531C61.4126 19.3779 61.1866 19.0394 60.8398 18.8959C60.4931 18.752 60.0941 18.8316 59.8288 19.0969L44.7127 34.2118L40.2681 29.7683C39.5711 29.0716 38.436 29.0712 37.7362 29.7684L30.1214 37.3845C29.3419 38.1652 28.1077 36.9511 28.8981 36.1601L33.0719 31.9866C33.4342 31.6241 33.4342 31.0367 33.0719 30.6744C32.7095 30.3123 32.122 30.312 31.7598 30.6744L27.586 34.8479C26.5049 35.9293 26.5493 37.7331 27.6657 38.7697C28.7226 39.7511 30.4151 39.7172 31.4343 38.6961L39.0023 31.127L43.4464 35.5699C44.1353 36.2612 45.2882 36.2637 45.978 35.5711L59.6312 21.9191C59.917 23.1158 60.9955 24.0084 62.2785 24.0084C63.7608 24.0084 65 22.7696 65 21.2869V15.3971C65.0001 13.911 63.7905 12.702 62.3037 12.702ZM23.234 66.0014C23.0282 66.8063 21.4347 66.598 21.6687 65.6835L24.3447 55.2128C25.1171 54.289 25.6418 53.152 25.8178 51.9042H26.8371L23.234 66.0014ZM34.9132 65.8425C34.9132 66.6688 33.6287 66.6701 33.6287 65.8425V51.904H34.9132V65.8425ZM46.8735 65.6834C47.1069 66.5958 45.5138 66.8056 45.3082 66.0014L41.7052 51.904H43.352L46.8735 65.6834ZM18.194 46.3379C18.5448 46.2575 18.9063 46.2166 19.2683 46.2166C21.8927 46.2166 24.0277 48.3509 24.0286 50.9746L24.0285 50.9762L24.0286 50.9778C24.0277 53.6015 21.8926 55.7358 19.2683 55.7358C16.6641 55.7358 14.5087 53.5781 14.5087 50.9761C14.5087 48.7452 16.0246 46.8378 18.194 46.3379ZM6.59414 18.5775C6.59414 17.1391 7.76433 15.9689 9.20272 15.9689H9.22734V16.5573C9.22734 16.9961 9.53464 17.3748 9.96404 17.4652L12.2251 17.9412C12.2292 17.9511 12.2333 17.9609 12.2375 17.9708L11.804 18.6354H6.59414V18.5775ZM24.5167 21.3687L22.7834 20.2381C22.154 19.8278 20.6107 20.4753 20.4579 21.2018L20.0317 23.2263H18.5052L18.079 21.2018C17.9244 20.4664 16.3752 19.8327 15.7535 20.2381L14.0202 21.3687L12.9407 20.2893L14.0713 18.556C14.4814 17.9266 13.8341 16.3832 13.1077 16.2304L11.083 15.8042V14.2779L13.1077 13.8517C13.8431 13.6971 14.4764 12.1478 14.0713 11.5262L12.9407 9.79284L14.0202 8.71333L15.7535 9.84393C16.3828 10.2542 17.9263 9.60677 18.079 8.88034L18.5053 6.85567H20.0318L20.458 8.88034C20.6126 9.61568 22.1619 10.2492 22.7835 9.84393L24.5169 8.71333L25.5963 9.79284L24.4657 11.5262C24.0553 12.1554 24.7031 13.699 25.4294 13.8517L27.4539 14.2779V15.8044L25.4294 16.2305C24.6941 16.3851 24.0602 17.9346 24.4657 18.5561L25.5963 20.2894L24.5167 21.3687ZM55.7824 18.0703L55.2174 18.6353H26.7329L26.2996 17.9708C26.3036 17.9609 26.3077 17.951 26.3119 17.9411L28.5729 17.4651C29.0023 17.3748 29.3096 16.9959 29.3096 16.5571V15.9688H53.7489C53.9563 16.9922 54.766 17.8299 55.7824 18.0703Z"/>
</mask>
<path d="M62.3037 12.702H56.4142C55.3885 12.702 54.4939 13.2728 54.0305 14.1132H29.3096V13.525C29.3096 13.0862 29.0023 12.7075 28.5729 12.6171L26.3119 12.141C26.3078 12.1311 26.3038 12.1212 26.2996 12.1113L27.5618 10.176C27.8015 9.80843 27.7509 9.32323 27.4407 9.01308L25.2966 6.86891C24.9864 6.55864 24.5013 6.50792 24.1336 6.7478L22.1981 8.01015C22.1882 8.00607 22.1785 8.00199 22.1686 7.99778L21.6925 5.7367C21.6022 5.3073 21.2234 5 20.7846 5H17.7523C17.3135 5 16.9348 5.3073 16.8444 5.7367L16.3684 7.99778C16.3585 8.00186 16.3487 8.00595 16.3388 8.01015L14.4034 6.7478C14.0359 6.50805 13.5507 6.55889 13.2404 6.86891L11.0963 9.01296C10.786 9.32335 10.7355 9.80855 10.9751 10.176L12.2375 12.1114C12.2334 12.1213 12.2293 12.1311 12.2251 12.141L9.96404 12.6171C9.53464 12.7074 9.22734 13.0862 9.22734 13.525V14.1132H9.20272C6.74123 14.1132 4.73846 16.1159 4.73846 18.5775V47.4398C4.73846 49.9013 6.74111 51.904 9.20272 51.904H12.7179C13.1664 55.137 16.0059 57.5916 19.2682 57.5916C20.2301 57.5916 21.1437 57.3835 21.9691 57.0128L19.8706 65.2241C19.0373 68.4841 24.2313 69.5916 25.0319 66.4612L28.7524 51.9043H31.7731V65.8426C31.7731 67.2011 32.9126 68.3405 34.2709 68.3405C35.6295 68.3405 36.7688 67.2011 36.7688 65.8426V51.904H39.7897L43.5101 66.4608C44.3099 69.5906 49.5049 68.485 48.6713 65.2238L45.2673 51.904H59.3395C61.801 51.904 63.8037 49.9014 63.8037 47.4398V27.3918C63.8037 26.8793 63.3884 26.464 62.8759 26.464C62.3634 26.464 61.9481 26.8793 61.9481 27.3918V47.4398C61.9481 48.8782 60.7779 50.0484 59.3395 50.0484L25.8179 50.0485C25.3653 46.8387 22.6013 44.361 19.2683 44.361C16.0059 44.361 13.1666 46.815 12.718 50.0484H9.20272C7.76433 50.0484 6.59414 48.8782 6.59414 47.4398V20.4911H10.829C10.847 20.7035 10.9365 20.9096 11.0963 21.0693L13.2404 23.2133C13.5506 23.5233 14.0355 23.5742 14.4033 23.3344L16.3387 22.0721C16.3486 22.0762 16.3585 22.0803 16.3684 22.0845L16.8444 24.3455C16.9347 24.7749 17.3135 25.0822 17.7523 25.0822H20.7846C21.2234 25.0822 21.6021 24.7749 21.6925 24.3455L22.1686 22.0845C22.1785 22.0804 22.1884 22.0763 22.1983 22.0721L24.1336 23.3344C24.5014 23.5743 24.9866 23.5235 25.2966 23.2133L27.4407 21.0693C27.6004 20.9096 27.6898 20.7035 27.7078 20.4911H53.3616L44.7121 29.1406L40.2693 24.6991C39.5778 24.0046 38.4289 24.005 37.7363 24.6977L34.8521 27.5818C34.4896 27.9442 34.4896 28.5317 34.852 28.8939C35.2143 29.2561 35.8018 29.2564 36.1641 28.894L39.0021 26.0562L43.4462 30.4992C44.1382 31.1906 45.2866 31.1927 45.978 30.4991L58.605 17.872C58.8704 17.6065 58.9497 17.2075 58.806 16.8607C58.6625 16.514 58.324 16.2879 57.9488 16.2879H56.4139C55.2981 16.2879 55.2992 14.5577 56.4139 14.5577H62.3035C62.767 14.5577 63.1442 14.9343 63.1442 15.3971V21.2866C63.1442 21.7591 62.7507 22.1525 62.2784 22.1525C61.8011 22.1525 61.4126 21.764 61.4126 21.2866V19.7531C61.4126 19.3779 61.1866 19.0394 60.8398 18.8959C60.4931 18.752 60.0941 18.8316 59.8288 19.0969L44.7127 34.2118L40.2681 29.7683C39.5711 29.0716 38.436 29.0712 37.7362 29.7684L30.1214 37.3845C29.3419 38.1652 28.1077 36.9511 28.8981 36.1601L33.0719 31.9866C33.4342 31.6241 33.4342 31.0367 33.0719 30.6744C32.7095 30.3123 32.122 30.312 31.7598 30.6744L27.586 34.8479C26.5049 35.9293 26.5493 37.7331 27.6657 38.7697C28.7226 39.7511 30.4151 39.7172 31.4343 38.6961L39.0023 31.127L43.4464 35.5699C44.1353 36.2612 45.2882 36.2637 45.978 35.5711L59.6312 21.9191C59.917 23.1158 60.9955 24.0084 62.2785 24.0084C63.7608 24.0084 65 22.7696 65 21.2869V15.3971C65.0001 13.911 63.7905 12.702 62.3037 12.702ZM23.234 66.0014C23.0282 66.8063 21.4347 66.598 21.6687 65.6835L24.3447 55.2128C25.1171 54.289 25.6418 53.152 25.8178 51.9042H26.8371L23.234 66.0014ZM34.9132 65.8425C34.9132 66.6688 33.6287 66.6701 33.6287 65.8425V51.904H34.9132V65.8425ZM46.8735 65.6834C47.1069 66.5958 45.5138 66.8056 45.3082 66.0014L41.7052 51.904H43.352L46.8735 65.6834ZM18.194 46.3379C18.5448 46.2575 18.9063 46.2166 19.2683 46.2166C21.8927 46.2166 24.0277 48.3509 24.0286 50.9746L24.0285 50.9762L24.0286 50.9778C24.0277 53.6015 21.8926 55.7358 19.2683 55.7358C16.6641 55.7358 14.5087 53.5781 14.5087 50.9761C14.5087 48.7452 16.0246 46.8378 18.194 46.3379ZM6.59414 18.5775C6.59414 17.1391 7.76433 15.9689 9.20272 15.9689H9.22734V16.5573C9.22734 16.9961 9.53464 17.3748 9.96404 17.4652L12.2251 17.9412C12.2292 17.9511 12.2333 17.9609 12.2375 17.9708L11.804 18.6354H6.59414V18.5775ZM24.5167 21.3687L22.7834 20.2381C22.154 19.8278 20.6107 20.4753 20.4579 21.2018L20.0317 23.2263H18.5052L18.079 21.2018C17.9244 20.4664 16.3752 19.8327 15.7535 20.2381L14.0202 21.3687L12.9407 20.2893L14.0713 18.556C14.4814 17.9266 13.8341 16.3832 13.1077 16.2304L11.083 15.8042V14.2779L13.1077 13.8517C13.8431 13.6971 14.4764 12.1478 14.0713 11.5262L12.9407 9.79284L14.0202 8.71333L15.7535 9.84393C16.3828 10.2542 17.9263 9.60677 18.079 8.88034L18.5053 6.85567H20.0318L20.458 8.88034C20.6126 9.61568 22.1619 10.2492 22.7835 9.84393L24.5169 8.71333L25.5963 9.79284L24.4657 11.5262C24.0553 12.1554 24.7031 13.699 25.4294 13.8517L27.4539 14.2779V15.8044L25.4294 16.2305C24.6941 16.3851 24.0602 17.9346 24.4657 18.5561L25.5963 20.2894L24.5167 21.3687ZM55.7824 18.0703L55.2174 18.6353H26.7329L26.2996 17.9708C26.3036 17.9609 26.3077 17.951 26.3119 17.9411L28.5729 17.4651C29.0023 17.3748 29.3096 16.9959 29.3096 16.5571V15.9688H53.7489C53.9563 16.9922 54.766 17.8299 55.7824 18.0703Z" fill="#7DA543" stroke="white" stroke-width="0.6" mask="url(#path-3-inside-1_183_322)"/>
<path d="M39.6421 43.9977H57.2268C57.6564 43.9977 58.0047 44.3458 58.0047 44.7755C58.0047 45.2052 57.6565 45.5534 57.2268 45.5534H39.6421C39.2124 45.5534 38.8642 45.2052 38.8642 44.7755C38.8642 44.3458 39.2124 43.9977 39.6421 43.9977Z" fill="#7DA543" stroke="white" stroke-width="0.3"/>
<path d="M46.8016 39.9269H57.2269C57.6564 39.9269 58.0047 40.2751 58.0047 40.7048C58.0047 41.1345 57.6566 41.4826 57.2269 41.4826H46.8016C46.3719 41.4826 46.0237 41.1345 46.0237 40.7048C46.0237 40.2751 46.3719 39.9269 46.8016 39.9269Z" fill="#7DA543" stroke="white" stroke-width="0.3"/>
<path d="M12.0349 36.1368C12.0349 35.7072 12.383 35.359 12.8127 35.359H19.2685C19.6982 35.359 20.0463 35.7072 20.0463 36.1368C20.0463 36.5665 19.6982 36.9147 19.2685 36.9147H12.8127C12.383 36.9147 12.0349 36.5665 12.0349 36.1368Z" fill="#7DA543" stroke="white" stroke-width="0.3"/>
<path d="M20.0465 52.2274C20.0465 52.6571 19.6984 53.0052 19.2687 53.0052C18.839 53.0052 18.4908 52.657 18.4908 52.2274V49.725C18.4908 49.2953 18.839 48.9471 19.2687 48.9471C19.6984 48.9471 20.0465 49.2953 20.0465 49.725V52.2274Z" fill="#7DA543" stroke="white" stroke-width="0.3"/>
</svg>
