<svg width="69" height="69" viewBox="0 0 69 69" fill="none" xmlns="http://www.w3.org/2000/svg">
<mask id="path-1-inside-1_183_288" fill="white">
<path d="M10.7895 68.1993H57.8336C58.3612 68.1993 58.7886 67.7716 58.7886 67.2442C58.7886 66.7167 58.3612 66.2891 57.8336 66.2891H56.0007C55.2566 64.0071 53.084 62.3839 50.6351 62.3839C50.612 62.3839 50.589 62.384 50.5659 62.3842C50.5637 62.3842 50.5616 62.3842 50.5594 62.3842C50.296 62.3842 50.0622 62.187 50.0142 61.9228C49.6189 59.7496 47.9666 57.9985 45.805 57.4615C45.2929 57.3342 44.775 57.6463 44.6478 58.1582C44.5206 58.6701 44.8324 59.1882 45.3443 59.3154C46.7785 59.6716 47.8736 60.8293 48.1348 62.2647C48.3514 63.4557 49.3833 64.3096 50.5896 64.2943C52.0084 64.2753 53.2934 65.0833 53.9347 66.289H14.688C15.3223 65.0962 16.5869 64.2939 17.9878 64.2939C18.0029 64.2939 18.0182 64.294 18.0334 64.2941C18.0438 64.2943 18.0544 64.2943 18.0648 64.2943C19.2566 64.2943 20.2733 63.4453 20.4885 62.2645C20.808 60.5137 22.3804 59.2059 24.1569 59.2059C24.1711 59.2059 24.1857 59.2059 24.1998 59.2061C25.4018 59.222 26.4435 58.3668 26.6636 57.1764C26.9902 55.4076 28.5358 54.1238 30.3383 54.1238C31.2022 54.1238 32.0447 54.4259 32.7105 54.9743C33.6383 55.7386 34.9848 55.7384 35.9127 54.9743C36.5783 54.4258 37.4207 54.1238 38.2847 54.1238C39.5832 54.1238 40.7697 54.784 41.4586 55.8896C41.7375 56.3373 42.3267 56.474 42.7742 56.1951C43.2219 55.9162 43.3587 55.3271 43.0797 54.8794C42.0397 53.2103 40.2472 52.2137 38.2847 52.2137C37.2136 52.2137 36.1647 52.5214 35.2665 53.0893V47.6496C36.9618 47.571 38.6024 47.1699 40.1091 46.4851C40.6561 50.2665 44.1828 52.8044 47.8849 52.2155C48.8669 52.0592 49.5826 51.1597 49.5142 50.1675C49.3008 47.074 46.9966 44.4561 43.8344 43.9418C44.4012 43.3911 44.9223 42.7859 45.3893 42.1303C45.5556 42.1188 45.7224 42.0863 45.8857 42.0294C49.6362 40.7204 51.474 36.4668 49.8309 32.8323C49.4214 31.926 48.3648 31.473 47.4259 31.8004C43.6671 33.112 41.8406 37.3704 43.4805 40.9975C43.5263 41.0988 43.5809 41.1936 43.6418 41.283C41.6399 43.9308 38.5805 45.5577 35.2665 45.7374V36.5809C35.8944 36.8142 38.3892 37.0492 40.4949 35.3167C41.8456 34.2053 42.6729 32.5654 42.7645 30.8174C42.8144 29.8703 42.1178 29.0238 41.1788 28.8902C38.9703 28.5759 36.6691 29.465 35.2665 31.3738V27.101C40.5729 26.6781 45.0647 22.7677 46.1391 17.4894C46.2443 16.9725 45.9105 16.4682 45.3936 16.363C44.8767 16.2577 44.3723 16.5915 44.2672 17.1085C43.3094 21.8149 39.1223 25.2307 34.3113 25.2307C28.709 25.2307 24.1511 20.6729 24.1511 15.0704C24.1511 9.46803 28.709 4.91015 34.3113 4.91015C39.1222 4.91015 43.3093 8.32602 44.2672 13.0324C44.3723 13.5494 44.8769 13.8835 45.3936 13.7778C45.9105 13.6727 46.2443 13.1684 46.1391 12.6515C45.0009 7.05908 40.0266 3 34.3116 3C27.6558 3 22.2412 8.41478 22.2412 15.0704C22.2412 21.4046 27.1456 26.6146 33.3565 27.1031V38.3645C30.0424 38.1848 26.9831 36.5578 24.9812 33.9101C25.4243 33.2586 26.3248 30.7878 25.1962 28.1567C24.4479 26.4125 22.9903 25.0532 21.197 24.4273C20.2583 24.0998 19.2016 24.5532 18.7919 25.4591C18.0095 27.1897 17.9901 29.1827 18.7383 30.927C19.8372 33.4881 22.2757 34.6911 23.2338 34.7572C23.7008 35.4129 24.2219 36.018 24.7888 36.5689C21.6329 37.082 19.3227 39.6946 19.1089 42.7945C19.0405 43.7867 19.7562 44.6862 20.7384 44.8423C24.4535 45.4333 27.9688 42.8801 28.514 39.112C30.0208 39.7967 31.6613 40.1978 33.3566 40.2764V53.0897C32.4585 52.5217 31.4095 52.2141 30.3386 52.2141C27.6148 52.2141 25.2793 54.1553 24.7855 56.8298C24.7361 57.0969 24.4976 57.2966 24.2293 57.2966C24.2271 57.2966 24.2249 57.2966 24.2228 57.2966C21.5119 57.2681 19.0967 59.253 18.6098 61.9222C18.5615 62.1869 18.3277 62.3845 18.064 62.3845C18.0619 62.3845 18.0597 62.3845 18.0574 62.3845C18.0344 62.3842 18.0116 62.3841 17.9885 62.3841C15.5392 62.3841 13.3665 64.0074 12.6225 66.2894H10.7895C10.262 66.2894 9.83447 66.717 9.83447 67.2444C9.83447 67.7719 10.262 68.1993 10.7895 68.1993ZM48.0554 33.6045C48.0578 33.6037 48.0603 33.6032 48.063 33.6032C48.0741 33.6032 48.0862 33.6098 48.0905 33.6194C49.2688 36.2258 47.9567 39.2839 45.2564 40.2262C45.2443 40.2305 45.2266 40.2232 45.2212 40.2112C44.0429 37.6047 45.355 34.5467 48.0554 33.6045ZM41.9831 45.8233C44.8015 45.3754 47.4114 47.4406 47.6086 50.2995C47.6095 50.3126 47.5977 50.3275 47.5848 50.3295C44.7662 50.7774 42.1564 48.7121 41.9592 45.8534C41.9583 45.8403 41.9701 45.8254 41.9831 45.8233ZM40.8571 30.7177C40.857 30.718 40.857 30.7181 40.857 30.7182C40.857 30.7181 40.8571 30.718 40.8571 30.7177ZM40.8538 30.7743C40.6898 33.2747 38.4481 35.1144 35.9677 34.7948C36.1318 32.2951 38.3729 30.4543 40.8538 30.7743ZM23.4019 32.8377C23.3964 32.8497 23.3782 32.8568 23.3668 32.8529C22.0786 32.4034 21.0313 31.4269 20.4938 30.174C19.9562 28.9212 19.9704 27.4894 20.5325 26.2461C20.538 26.2338 20.556 26.2267 20.5676 26.2309C21.8561 26.6806 22.9032 27.657 23.4407 28.9098C23.978 30.1628 23.964 31.5944 23.4019 32.8377ZM21.0382 42.956C21.0252 42.9539 21.0136 42.9391 21.0143 42.926C21.1893 40.3892 23.2961 38.3897 25.8775 38.3897C26.1314 38.3897 26.3863 38.4095 26.6399 38.4499C26.6529 38.4521 26.6644 38.4668 26.6637 38.4798C26.4667 41.3332 23.8633 43.4051 21.0382 42.956Z"/>
</mask>
<path d="M10.7895 68.1993H57.8336C58.3612 68.1993 58.7886 67.7716 58.7886 67.2442C58.7886 66.7167 58.3612 66.2891 57.8336 66.2891H56.0007C55.2566 64.0071 53.084 62.3839 50.6351 62.3839C50.612 62.3839 50.589 62.384 50.5659 62.3842C50.5637 62.3842 50.5616 62.3842 50.5594 62.3842C50.296 62.3842 50.0622 62.187 50.0142 61.9228C49.6189 59.7496 47.9666 57.9985 45.805 57.4615C45.2929 57.3342 44.775 57.6463 44.6478 58.1582C44.5206 58.6701 44.8324 59.1882 45.3443 59.3154C46.7785 59.6716 47.8736 60.8293 48.1348 62.2647C48.3514 63.4557 49.3833 64.3096 50.5896 64.2943C52.0084 64.2753 53.2934 65.0833 53.9347 66.289H14.688C15.3223 65.0962 16.5869 64.2939 17.9878 64.2939C18.0029 64.2939 18.0182 64.294 18.0334 64.2941C18.0438 64.2943 18.0544 64.2943 18.0648 64.2943C19.2566 64.2943 20.2733 63.4453 20.4885 62.2645C20.808 60.5137 22.3804 59.2059 24.1569 59.2059C24.1711 59.2059 24.1857 59.2059 24.1998 59.2061C25.4018 59.222 26.4435 58.3668 26.6636 57.1764C26.9902 55.4076 28.5358 54.1238 30.3383 54.1238C31.2022 54.1238 32.0447 54.4259 32.7105 54.9743C33.6383 55.7386 34.9848 55.7384 35.9127 54.9743C36.5783 54.4258 37.4207 54.1238 38.2847 54.1238C39.5832 54.1238 40.7697 54.784 41.4586 55.8896C41.7375 56.3373 42.3267 56.474 42.7742 56.1951C43.2219 55.9162 43.3587 55.3271 43.0797 54.8794C42.0397 53.2103 40.2472 52.2137 38.2847 52.2137C37.2136 52.2137 36.1647 52.5214 35.2665 53.0893V47.6496C36.9618 47.571 38.6024 47.1699 40.1091 46.4851C40.6561 50.2665 44.1828 52.8044 47.8849 52.2155C48.8669 52.0592 49.5826 51.1597 49.5142 50.1675C49.3008 47.074 46.9966 44.4561 43.8344 43.9418C44.4012 43.3911 44.9223 42.7859 45.3893 42.1303C45.5556 42.1188 45.7224 42.0863 45.8857 42.0294C49.6362 40.7204 51.474 36.4668 49.8309 32.8323C49.4214 31.926 48.3648 31.473 47.4259 31.8004C43.6671 33.112 41.8406 37.3704 43.4805 40.9975C43.5263 41.0988 43.5809 41.1936 43.6418 41.283C41.6399 43.9308 38.5805 45.5577 35.2665 45.7374V36.5809C35.8944 36.8142 38.3892 37.0492 40.4949 35.3167C41.8456 34.2053 42.6729 32.5654 42.7645 30.8174C42.8144 29.8703 42.1178 29.0238 41.1788 28.8902C38.9703 28.5759 36.6691 29.465 35.2665 31.3738V27.101C40.5729 26.6781 45.0647 22.7677 46.1391 17.4894C46.2443 16.9725 45.9105 16.4682 45.3936 16.363C44.8767 16.2577 44.3723 16.5915 44.2672 17.1085C43.3094 21.8149 39.1223 25.2307 34.3113 25.2307C28.709 25.2307 24.1511 20.6729 24.1511 15.0704C24.1511 9.46803 28.709 4.91015 34.3113 4.91015C39.1222 4.91015 43.3093 8.32602 44.2672 13.0324C44.3723 13.5494 44.8769 13.8835 45.3936 13.7778C45.9105 13.6727 46.2443 13.1684 46.1391 12.6515C45.0009 7.05908 40.0266 3 34.3116 3C27.6558 3 22.2412 8.41478 22.2412 15.0704C22.2412 21.4046 27.1456 26.6146 33.3565 27.1031V38.3645C30.0424 38.1848 26.9831 36.5578 24.9812 33.9101C25.4243 33.2586 26.3248 30.7878 25.1962 28.1567C24.4479 26.4125 22.9903 25.0532 21.197 24.4273C20.2583 24.0998 19.2016 24.5532 18.7919 25.4591C18.0095 27.1897 17.9901 29.1827 18.7383 30.927C19.8372 33.4881 22.2757 34.6911 23.2338 34.7572C23.7008 35.4129 24.2219 36.018 24.7888 36.5689C21.6329 37.082 19.3227 39.6946 19.1089 42.7945C19.0405 43.7867 19.7562 44.6862 20.7384 44.8423C24.4535 45.4333 27.9688 42.8801 28.514 39.112C30.0208 39.7967 31.6613 40.1978 33.3566 40.2764V53.0897C32.4585 52.5217 31.4095 52.2141 30.3386 52.2141C27.6148 52.2141 25.2793 54.1553 24.7855 56.8298C24.7361 57.0969 24.4976 57.2966 24.2293 57.2966C24.2271 57.2966 24.2249 57.2966 24.2228 57.2966C21.5119 57.2681 19.0967 59.253 18.6098 61.9222C18.5615 62.1869 18.3277 62.3845 18.064 62.3845C18.0619 62.3845 18.0597 62.3845 18.0574 62.3845C18.0344 62.3842 18.0116 62.3841 17.9885 62.3841C15.5392 62.3841 13.3665 64.0074 12.6225 66.2894H10.7895C10.262 66.2894 9.83447 66.717 9.83447 67.2444C9.83447 67.7719 10.262 68.1993 10.7895 68.1993ZM48.0554 33.6045C48.0578 33.6037 48.0603 33.6032 48.063 33.6032C48.0741 33.6032 48.0862 33.6098 48.0905 33.6194C49.2688 36.2258 47.9567 39.2839 45.2564 40.2262C45.2443 40.2305 45.2266 40.2232 45.2212 40.2112C44.0429 37.6047 45.355 34.5467 48.0554 33.6045ZM41.9831 45.8233C44.8015 45.3754 47.4114 47.4406 47.6086 50.2995C47.6095 50.3126 47.5977 50.3275 47.5848 50.3295C44.7662 50.7774 42.1564 48.7121 41.9592 45.8534C41.9583 45.8403 41.9701 45.8254 41.9831 45.8233ZM40.8571 30.7177C40.857 30.718 40.857 30.7181 40.857 30.7182C40.857 30.7181 40.8571 30.718 40.8571 30.7177ZM40.8538 30.7743C40.6898 33.2747 38.4481 35.1144 35.9677 34.7948C36.1318 32.2951 38.3729 30.4543 40.8538 30.7743ZM23.4019 32.8377C23.3964 32.8497 23.3782 32.8568 23.3668 32.8529C22.0786 32.4034 21.0313 31.4269 20.4938 30.174C19.9562 28.9212 19.9704 27.4894 20.5325 26.2461C20.538 26.2338 20.556 26.2267 20.5676 26.2309C21.8561 26.6806 22.9032 27.657 23.4407 28.9098C23.978 30.1628 23.964 31.5944 23.4019 32.8377ZM21.0382 42.956C21.0252 42.9539 21.0136 42.9391 21.0143 42.926C21.1893 40.3892 23.2961 38.3897 25.8775 38.3897C26.1314 38.3897 26.3863 38.4095 26.6399 38.4499C26.6529 38.4521 26.6644 38.4668 26.6637 38.4798C26.4667 41.3332 23.8633 43.4051 21.0382 42.956Z" fill="#7DA543" stroke="white" stroke-width="0.4" mask="url(#path-1-inside-1_183_288)"/>
<path d="M36.4566 12.1648L36.4566 12.1649C36.7844 12.5016 37.3235 12.5106 37.6624 12.1842C38.0024 11.8566 38.0127 11.3154 37.6852 10.9752L36.4566 12.1648ZM36.4566 12.1648L36.4555 12.1637M36.4566 12.1648L36.4555 12.1637M36.4555 12.1637C36.4413 12.1496 36.2171 11.9282 35.8622 11.7099C35.5083 11.4921 35.0161 11.2721 34.4679 11.2721C33.9659 11.2721 33.537 11.4451 33.2323 11.6992C32.9293 11.9519 32.743 12.2909 32.743 12.6239C32.743 12.7658 32.812 12.9135 32.9255 13.0561C33.0401 13.2002 33.2074 13.3483 33.422 13.4932C33.8514 13.783 34.4814 14.067 35.2935 14.2809C36.2324 14.5283 36.9295 14.9226 37.3917 15.4533C37.8528 15.9827 38.0877 16.6563 38.0878 17.478C38.0878 18.7722 37.1086 20.1525 35.2485 20.497L35.1667 20.5122V20.5953V21.4111C35.1667 21.8855 34.8014 22.2919 34.338 22.3058C33.8536 22.3203 33.4566 21.932 33.4566 21.4511V20.5807V20.4991L33.3767 20.4827C32.5646 20.3159 31.9445 19.9544 31.5029 19.5989L31.5029 19.5989C31.2811 19.4204 31.1888 19.2092 31.1814 19.005C31.1739 18.7983 31.2534 18.5902 31.3911 18.4234C31.5288 18.2566 31.7204 18.1363 31.9295 18.1001C32.1362 18.0644 32.3665 18.1096 32.5895 18.2846L32.6512 18.206L32.5895 18.2846C32.9495 18.5673 33.5238 18.8687 34.3329 18.8687C35.7976 18.8687 36.3776 18.0679 36.3776 17.4778V17.4716C36.3776 17.2486 36.3776 16.9549 36.1788 16.6712C35.9787 16.3855 35.5909 16.1275 34.8577 15.9344C32.3878 15.2837 31.0329 14.0622 31.0329 12.6236C31.0329 11.2794 32.0135 10.1261 33.3849 9.71864L33.4565 9.69739M36.4555 12.1637L33.4565 9.69739M35.1666 9.62659V9.5451V8.72959C35.1666 8.25522 34.8013 7.84876 34.3378 7.83487L35.1666 9.62659ZM35.1666 9.62659L35.2464 9.64304M35.1666 9.62659L35.2464 9.64304M35.2464 9.64304C36.6671 9.93597 37.6394 10.9277 37.6852 10.9751L35.2464 9.64304ZM33.4565 9.69739V9.62278M33.4565 9.69739V9.62278M33.4565 9.62278V8.68961C33.4565 8.20857 33.8534 7.82039 34.3378 7.83487L33.4565 9.62278Z" fill="#7DA543" stroke="white" stroke-width="0.2"/>
</svg>
