<svg width="69" height="69" viewBox="0 0 69 69" fill="none" xmlns="http://www.w3.org/2000/svg">
<path d="M5.81641 23.3244H5.71641V23.4244V65.2151C5.71641 65.8583 6.23785 66.3819 6.87961 66.3819H63.1204C63.7623 66.3819 64.2836 65.8581 64.2836 65.2151V47.3041C64.2836 46.8578 64.6455 46.4959 65.0918 46.4959C65.5381 46.4959 65.9 46.8578 65.9 47.3041V65.2151C65.9 66.7498 64.6528 67.9983 63.1204 67.9983H6.87961C5.34706 67.9983 4.1 66.7497 4.1 65.2151V16.7849C4.1 15.2501 5.34706 14.0016 6.87961 14.0016H63.1204C64.6529 14.0016 65.9 15.2502 65.9 16.7849V43.0658C65.9 43.5122 65.5381 43.874 65.0918 43.874C64.6455 43.874 64.2836 43.5122 64.2836 43.0658V23.4244V23.3244H64.1836H20.0074C19.561 23.3244 19.1992 22.9626 19.1992 22.5162C19.1992 22.0699 19.561 21.708 20.0074 21.708H64.1836H64.2836V21.608V16.7849C64.2836 16.1417 63.7621 15.618 63.1204 15.618H6.87961C6.23771 15.618 5.71641 16.1418 5.71641 16.7849V21.608V21.708H5.81641H15.7691C16.2154 21.708 16.5773 22.0699 16.5773 22.5162C16.5773 22.9626 16.2154 23.3244 15.7691 23.3244H5.81641Z" fill="#7DA543" stroke="white" stroke-width="0.2"/>
<path d="M58.0938 40.7349L58.0845 40.6452C58.0775 40.5786 58.0664 40.512 58.0506 40.4458L58.0506 40.4457C57.9267 39.9252 57.5502 39.5148 57.0425 39.3469L47.5848 36.2209C47.5847 36.2209 47.5847 36.2209 47.5847 36.2209C47.1297 36.0714 46.6369 36.1889 46.298 36.5275C45.9587 36.8665 45.8404 37.3598 45.99 37.8177L58.0938 40.7349ZM58.0938 40.7349H58.184H59.0609C59.2824 40.7349 59.4624 40.5548 59.4624 40.3333V34.5802C59.4624 34.3587 59.2824 34.1787 59.0609 34.1787H56.2794C55.8331 34.1787 55.4712 33.8168 55.4712 33.3705C55.4712 32.9241 55.8331 32.5622 56.2794 32.5622H59.0609C60.1735 32.5622 61.0789 33.4676 61.0789 34.5802L61.079 40.3333C61.079 41.4459 60.1736 42.3513 59.061 42.3513H57.218H57.1765L57.1472 42.3806L56.3468 43.1826L56.2763 43.2533L56.3468 43.3239L57.3898 44.3691C57.985 44.9655 57.985 45.9362 57.3898 46.5326L57.4605 46.6032L57.3898 46.5326L56.2847 47.64C55.9956 47.9296 55.6116 48.0888 55.2028 48.0888C54.7939 48.0888 54.41 47.9295 54.121 47.64C54.121 47.64 54.121 47.64 54.121 47.64L53.0804 46.5974L53.0096 46.5264L52.9388 46.5974L51.6434 47.8955L51.6434 47.8955C51.3516 48.1879 50.9659 48.3452 50.5663 48.3452C50.4477 48.3452 50.3278 48.3313 50.2086 48.303L50.2086 48.303C49.6876 48.1792 49.2769 47.802 49.1092 47.2928L47.5051 42.42L47.4825 42.3513H47.4101H41.7749C40.6623 42.3513 39.757 41.4459 39.757 40.3333V34.5802C39.757 33.4676 40.6623 32.5622 41.7749 32.5622H52.0412C52.4876 32.5622 52.8494 32.9241 52.8494 33.3705C52.8494 33.8168 52.4876 34.1787 52.0412 34.1787H41.7749C41.5534 34.1787 41.3734 34.3587 41.3734 34.5802V40.3333C41.3734 40.5548 41.5534 40.7349 41.7749 40.7349H46.8122H46.9504L46.9072 40.6036L45.9901 37.8179L58.0938 40.7349ZM56.115 45.5214L56.1855 45.4508L56.115 45.3801L54.5622 43.8242C54.5622 43.8242 54.5622 43.8242 54.5622 43.8242C54.2475 43.5087 54.2475 42.9979 54.5622 42.6824C54.5622 42.6824 54.5622 42.6824 54.5622 42.6823L56.2884 40.9527L56.4029 40.8379L56.249 40.7871L47.9321 38.0381L47.7436 37.9758L47.8057 38.1643L50.5491 46.498L50.5999 46.6525L50.7148 46.5374L52.4374 44.8114L52.4374 44.8114C52.589 44.6595 52.7948 44.5741 53.0095 44.5741C53.2242 44.5741 53.43 44.6595 53.5816 44.8114L53.6524 44.7408L53.5816 44.8114L55.1319 46.3648L55.2026 46.4358L55.2734 46.3648L56.115 45.5214Z" fill="#7DA543" stroke="white" stroke-width="0.2"/>
<path d="M35.2217 32.4407H35.3217V32.3407V30.9492C35.3217 30.0593 34.5979 29.3355 33.708 29.3355H12.1509C11.261 29.3355 10.5372 30.0593 10.5372 30.9492V32.3407V32.4407H10.6372H35.2217ZM10.6372 38.9843H10.5372V39.0843V45.237C10.5372 46.127 11.261 46.8507 12.1509 46.8507H33.708C34.5979 46.8507 35.3217 46.127 35.3217 45.237V39.0843V38.9843H35.2217H22.9972C22.5509 38.9843 22.189 38.6224 22.189 38.1761C22.189 37.7297 22.5509 37.3679 22.9972 37.3679H35.2217H35.3217V37.2679V34.1571V34.0571H35.2217H10.6372H10.5372V34.1571V37.2679V37.3679H10.6372H18.759C19.2053 37.3679 19.5672 37.7297 19.5672 38.1761C19.5672 38.6224 19.2053 38.9843 18.759 38.9843H10.6372ZM36.9381 30.9492V45.237C36.9381 47.0181 35.489 48.4671 33.708 48.4671H12.1509C10.3698 48.4671 8.9208 47.0181 8.9208 45.237V30.9492C8.9208 29.1682 10.3698 27.7191 12.1509 27.7191H33.708C35.489 27.7191 36.9381 29.1682 36.9381 30.9492Z" fill="#7DA543" stroke="white" stroke-width="0.2"/>
<path d="M13.1423 42.6136H17.2452C17.6916 42.6136 18.0534 42.9755 18.0534 43.4218C18.0534 43.8682 17.6916 44.23 17.2452 44.23H13.1423C12.696 44.23 12.3341 43.8682 12.3341 43.4218C12.3341 42.9755 12.696 42.6136 13.1423 42.6136Z" fill="#7DA543" stroke="white" stroke-width="0.2"/>
<path d="M20.8781 42.6136H24.9811C25.4274 42.6136 25.7892 42.9755 25.7892 43.4218C25.7892 43.8682 25.4273 44.23 24.9809 44.23H20.8781C20.4317 44.23 20.0698 43.8682 20.0698 43.4218C20.0698 42.9755 20.4317 42.6136 20.8781 42.6136Z" fill="#7DA543" stroke="white" stroke-width="0.2"/>
<path d="M28.6139 42.6136H32.7168C33.1631 42.6136 33.525 42.9755 33.525 43.4218C33.525 43.8682 33.1631 44.23 32.7168 44.23H28.6139C28.1675 44.23 27.8057 43.8682 27.8057 43.4218C27.8057 42.9755 28.1675 42.6136 28.6139 42.6136Z" fill="#7DA543" stroke="white" stroke-width="0.2"/>
<path d="M14.2683 59.25H14.3683L14.3683 59.15L14.3681 55.7694L14.3681 55.6694H14.2681H10.8876H10.7876V55.7694V59.15V59.25H10.8876H14.2683ZM9.17117 55.4666C9.17117 54.6871 9.80537 54.0529 10.5848 54.0529H14.5709C15.3504 54.0529 15.9846 54.6871 15.9846 55.4666V59.4526C15.9846 60.2321 15.3504 60.8663 14.5709 60.8663H10.5848C9.80537 60.8663 9.17117 60.2321 9.17117 59.4526V55.4666Z" fill="#7DA543" stroke="white" stroke-width="0.2"/>
<path d="M25.5201 59.25H25.6201V59.15V55.7694V55.6694H25.5201H22.1394H22.0394V55.7694V59.15V59.25H22.1394H25.5201ZM20.423 55.4666C20.423 54.6871 21.0572 54.0529 21.8367 54.0529H25.8228C26.6023 54.0529 27.2365 54.6871 27.2365 55.4666V59.4526C27.2365 60.2321 26.6023 60.8663 25.8228 60.8663H21.8367C21.0572 60.8663 20.423 60.2321 20.423 59.4526V55.4666Z" fill="#7DA543" stroke="white" stroke-width="0.2"/>
<path d="M59.1124 59.25H59.2124V59.15V55.7694V55.6694H59.1124H55.7318H55.6318V55.7694V59.15V59.25H55.7318H59.1124ZM55.4291 54.0529H59.4151C60.1945 54.0529 60.8288 54.6872 60.8288 55.4666V59.4526C60.8288 60.2321 60.1946 60.8663 59.4151 60.8663H55.4291C54.6496 60.8663 54.0154 60.2321 54.0154 59.4526V55.4666C54.0154 54.6871 54.6496 54.0529 55.4291 54.0529Z" fill="#7DA543" stroke="white" stroke-width="0.2"/>
<path d="M33.3911 55.6693H33.2911V55.7693V59.1499V59.2499H33.3911H47.8606H47.9606V59.1499V55.7693V55.6693H47.8606H33.3911ZM48.1633 60.8664H33.0884C32.3089 60.8664 31.6747 60.2321 31.6747 59.4527V55.4667C31.6747 54.6872 32.3089 54.053 33.0884 54.053H48.1633C48.9428 54.053 49.577 54.6872 49.577 55.4667V59.4527C49.577 60.2322 48.9428 60.8664 48.1633 60.8664Z" fill="#7DA543" stroke="white" stroke-width="0.2"/>
<path d="M9.90256 18.6629C9.90256 19.1093 9.54072 19.4711 9.09436 19.4711C8.648 19.4711 8.28616 19.1093 8.28616 18.6629C8.28616 18.2165 8.648 17.8547 9.09436 17.8547C9.54072 17.8547 9.90256 18.2165 9.90256 18.6629Z" fill="#7DA543" stroke="white" stroke-width="0.2"/>
<path d="M14.0343 18.6629C14.0343 19.1093 13.6724 19.4711 13.2261 19.4711C12.7797 19.4711 12.4179 19.1093 12.4179 18.6629C12.4179 18.2165 12.7797 17.8547 13.2261 17.8547C13.6724 17.8547 14.0343 18.2165 14.0343 18.6629Z" fill="#7DA543" stroke="white" stroke-width="0.2"/>
<path d="M18.1661 18.6629C18.1661 19.1093 17.8043 19.4711 17.3579 19.4711C16.9116 19.4711 16.5497 19.1093 16.5497 18.6629C16.5497 18.2165 16.9116 17.8547 17.3579 17.8547C17.8043 17.8547 18.1661 18.2165 18.1661 18.6629Z" fill="#7DA543" stroke="white" stroke-width="0.2"/>
</svg>
