<svg width="69" height="69" viewBox="0 0 69 69" fill="none" xmlns="http://www.w3.org/2000/svg">
<path d="M43.1543 11.4698L43.1483 11.6255H43.3042H52.8415C54.019 11.6255 54.9774 12.5839 54.9774 13.7614V30.9139C54.9774 32.0914 54.019 33.0498 52.8415 33.0498H45.7C45.2417 33.0498 44.8703 32.6785 44.8703 32.2201C44.8703 31.7618 45.2417 31.3905 45.7 31.3905H52.8415C53.1043 31.3905 53.318 31.1769 53.318 30.9139V13.7613C53.318 13.4983 53.1043 13.2847 52.8415 13.2847H16.0386C15.7758 13.2847 15.5621 13.4983 15.5621 13.7613V18.5369C15.5621 18.9953 15.1906 19.3666 14.7324 19.3666C14.2741 19.3666 13.9027 18.9952 13.9027 18.5372V13.7616C13.9027 12.584 14.8611 11.6256 16.0386 11.6256H30.9493H31.0821L31.0982 11.4938C31.295 9.88031 32.6728 8.6261 34.3382 8.6261C35.3727 8.6261 36.2902 9.09854 36.8875 9.84303L36.9949 9.97687L37.1132 9.85257C38.2233 8.68605 39.78 8.06094 41.4234 8.16028L41.4236 8.16028C41.9802 8.19337 42.4843 8.54655 42.7056 9.05862L42.7057 9.05866C43.034 9.81784 43.1857 10.6469 43.1543 11.4698ZM41.259 9.90756L41.2227 9.8096H41.1183L41.1048 9.80954L41.0893 9.80947C39.8591 9.80947 38.7188 10.3882 37.988 11.3868L37.8134 11.6254H38.1091H41.3408H41.4822L41.4905 11.4842C41.522 10.9512 41.4455 10.4117 41.259 9.90756ZM35.7332 11.6255H35.9335L35.8771 11.4332C35.6811 10.7654 35.0686 10.2853 34.3384 10.2853C33.6117 10.2853 32.9979 10.7703 32.8002 11.4326L32.7426 11.6255H32.9439H35.7332Z" fill="#7DA543" stroke="white" stroke-width="0.3"/>
<mask id="path-2-inside-1_183_233" fill="white">
<path d="M11.4951 55.6018C13.7746 55.8824 16.3158 56.5696 19.0482 57.6442C23.4428 59.3725 25.9544 57.9722 28.3833 56.6183C30.2228 55.5926 32.1251 54.5322 35.1473 54.5322C38.4858 54.5322 40.4222 55.5026 42.2948 56.4409C44.0437 57.3174 45.8522 58.2236 48.5686 58.2236C51.8368 58.2236 53.8527 58.9479 55.6314 59.587C56.9032 60.0439 58.1044 60.4755 59.4538 60.4755H66.9002C67.4412 60.4755 67.8799 60.037 67.8799 59.4958C67.8799 58.9547 67.4412 58.5162 66.9002 58.5162H59.4538C58.4458 58.5162 57.4962 58.175 56.294 57.743C54.4603 57.0843 52.1781 56.2643 48.5686 56.2643C46.3156 56.2643 44.8591 55.5344 43.1726 54.6892C41.6935 53.9481 40.0669 53.1332 37.7535 52.7684V45.8712C37.9808 45.7937 38.2107 45.7219 38.4435 45.6558C39.3189 45.4074 40.0561 44.8533 40.5409 44.1237C41.3118 44.8045 42.257 45.2621 43.298 45.4455C43.6304 45.5041 43.963 45.5328 44.2928 45.5328C45.875 45.5328 47.3889 44.8707 48.4778 43.6687C48.9222 43.1782 49.0434 42.4927 48.7939 41.8797C48.3178 40.7093 47.4596 39.7335 46.3794 39.1089C46.6827 37.9519 46.6246 36.7139 46.18 35.5529C45.9433 34.9349 45.3642 34.5002 44.7048 34.4456C42.6933 34.2785 40.7704 35.1415 39.5602 36.7529C39.1488 37.3006 38.8466 37.9121 38.6521 38.5534C38.3636 38.4542 38.0623 38.3909 37.7536 38.3651V33.1997H41.4337C41.9748 33.1997 42.4134 32.7611 42.4134 32.22C42.4134 31.6788 41.9748 31.2403 41.4337 31.2403H34.5696C34.717 29.6562 34.2111 28.0756 33.1296 26.8526C32.6911 26.3569 31.9961 26.1532 31.3598 26.3332C29.4181 26.8828 27.9195 28.3651 27.3515 30.2986C27.2603 30.6087 27.1994 30.9238 27.1617 31.2402H16.0387C15.8587 31.2402 15.7121 31.0937 15.7121 30.9136V22.8028C15.7121 22.2617 15.2735 21.8232 14.7325 21.8232C14.1914 21.8232 13.7528 22.2617 13.7528 22.8028V30.9136C13.7528 32.174 14.7783 33.1995 16.0387 33.1995H21.6108C21.3549 33.9147 21.2417 34.6798 21.2877 35.4482C21.3244 36.0613 21.7123 36.6151 22.2763 36.8591C23.0054 37.1744 23.7725 37.3299 24.5343 37.3299C25.6737 37.3299 26.8015 36.9822 27.774 36.3012C27.9559 36.174 28.1278 36.0363 28.2914 35.8909C28.1071 36.776 28.2575 37.7071 28.742 38.5178C29.2395 39.3505 30.0195 39.9341 30.9234 40.18V42.4595C29.3857 41.5163 27.5104 41.3337 25.8013 41.9882C25.1833 42.2249 24.7488 42.804 24.6942 43.4634C24.5277 45.4745 25.3903 47.3976 27.0015 48.6081C27.7385 49.1616 28.5898 49.5215 29.4757 49.6795C27.4509 52.4027 26.746 54.9531 26.7114 55.0815C26.6898 55.1615 26.6802 55.2417 26.6789 55.3208C24.6392 56.4234 22.9196 57.0611 19.7653 55.821C16.8795 54.6861 14.1777 53.958 11.7346 53.6574C11.1975 53.5902 10.7087 53.973 10.6426 54.51C10.5764 55.0468 10.9582 55.5357 11.4951 55.6018ZM30.9233 53.2516C30.3165 53.4576 29.7568 53.6973 29.2293 53.9517C29.5979 53.1361 30.1472 52.0965 30.9233 51.0207V53.2516ZM35.7941 52.5844C35.5834 52.577 35.3683 52.5729 35.1473 52.5729C34.3258 52.5729 33.5759 52.6407 32.8826 52.7573V49.258C33.3076 49.0177 33.5999 48.5957 33.6737 48.1082C34.3395 47.5756 35.0477 47.1111 35.7941 46.7164V52.5844ZM46.915 42.4705C46.0582 43.339 44.845 43.7292 43.6383 43.5161C43.2636 43.45 42.9081 43.3295 42.5799 43.1604C43.6866 42.7895 44.6795 42.0934 45.3975 41.1375C45.4547 41.0613 45.5079 40.9832 45.5609 40.9049C46.1465 41.2851 46.6203 41.8281 46.915 42.4705ZM41.1266 37.9297C41.9012 36.8987 43.1177 36.331 44.3992 36.3891C44.8142 37.6037 44.6059 38.9286 43.8307 39.9608C43.0514 40.9983 41.8396 41.5625 40.5577 41.5036C40.1414 40.2872 40.3481 38.9665 41.1266 37.9297ZM38.4058 40.6002C38.4418 41.2272 38.578 41.8516 38.819 42.4464C38.8741 42.5824 38.9466 42.7078 39.0332 42.8207C38.818 43.2757 38.4111 43.6283 37.9085 43.771C37.8566 43.7857 37.8052 43.8019 37.7534 43.8172V40.3397C37.9868 40.3817 38.2081 40.47 38.4058 40.6002ZM35.7941 44.5389C34.9878 44.8991 34.2159 45.3262 33.483 45.8196C33.3427 45.3356 33.1411 44.8707 32.8826 44.4381V34.8289C33.3529 34.3582 33.7428 33.8077 34.0311 33.1999H35.794V44.5389H35.7941ZM29.2313 30.8513C29.5948 29.6141 30.5327 28.6551 31.7553 28.2606C32.57 29.2524 32.8398 30.5663 32.4759 31.8047C32.1101 33.0496 31.1748 34.005 29.9521 34.3976C29.1357 33.4046 28.8657 32.0952 29.2313 30.8513ZM26.65 34.6964C25.6428 35.4013 24.3804 35.5602 23.2369 35.1345C23.2326 34.452 23.4187 33.7817 23.7689 33.1997H27.2585C27.3123 33.4426 27.3812 33.6821 27.4655 33.9167C27.2369 34.2155 26.9638 34.4768 26.65 34.6964ZM30.4237 37.5129C30.2106 37.156 30.1376 36.7511 30.1999 36.3618C30.2114 36.3591 30.223 36.3582 30.2345 36.3552C30.4701 36.2936 30.6999 36.2167 30.9233 36.127V38.0487C30.7261 37.9116 30.5553 37.7329 30.4237 37.5129ZM26.6376 43.7689C27.8521 43.354 29.1772 43.5622 30.2093 44.3375C31.2467 45.1167 31.8132 46.3273 31.7519 47.6104C30.5357 48.0266 29.2148 47.8201 28.1783 47.0416C27.1472 46.267 26.578 45.0523 26.6376 43.7689Z"/>
</mask>
<path d="M11.4951 55.6018C13.7746 55.8824 16.3158 56.5696 19.0482 57.6442C23.4428 59.3725 25.9544 57.9722 28.3833 56.6183C30.2228 55.5926 32.1251 54.5322 35.1473 54.5322C38.4858 54.5322 40.4222 55.5026 42.2948 56.4409C44.0437 57.3174 45.8522 58.2236 48.5686 58.2236C51.8368 58.2236 53.8527 58.9479 55.6314 59.587C56.9032 60.0439 58.1044 60.4755 59.4538 60.4755H66.9002C67.4412 60.4755 67.8799 60.037 67.8799 59.4958C67.8799 58.9547 67.4412 58.5162 66.9002 58.5162H59.4538C58.4458 58.5162 57.4962 58.175 56.294 57.743C54.4603 57.0843 52.1781 56.2643 48.5686 56.2643C46.3156 56.2643 44.8591 55.5344 43.1726 54.6892C41.6935 53.9481 40.0669 53.1332 37.7535 52.7684V45.8712C37.9808 45.7937 38.2107 45.7219 38.4435 45.6558C39.3189 45.4074 40.0561 44.8533 40.5409 44.1237C41.3118 44.8045 42.257 45.2621 43.298 45.4455C43.6304 45.5041 43.963 45.5328 44.2928 45.5328C45.875 45.5328 47.3889 44.8707 48.4778 43.6687C48.9222 43.1782 49.0434 42.4927 48.7939 41.8797C48.3178 40.7093 47.4596 39.7335 46.3794 39.1089C46.6827 37.9519 46.6246 36.7139 46.18 35.5529C45.9433 34.9349 45.3642 34.5002 44.7048 34.4456C42.6933 34.2785 40.7704 35.1415 39.5602 36.7529C39.1488 37.3006 38.8466 37.9121 38.6521 38.5534C38.3636 38.4542 38.0623 38.3909 37.7536 38.3651V33.1997H41.4337C41.9748 33.1997 42.4134 32.7611 42.4134 32.22C42.4134 31.6788 41.9748 31.2403 41.4337 31.2403H34.5696C34.717 29.6562 34.2111 28.0756 33.1296 26.8526C32.6911 26.3569 31.9961 26.1532 31.3598 26.3332C29.4181 26.8828 27.9195 28.3651 27.3515 30.2986C27.2603 30.6087 27.1994 30.9238 27.1617 31.2402H16.0387C15.8587 31.2402 15.7121 31.0937 15.7121 30.9136V22.8028C15.7121 22.2617 15.2735 21.8232 14.7325 21.8232C14.1914 21.8232 13.7528 22.2617 13.7528 22.8028V30.9136C13.7528 32.174 14.7783 33.1995 16.0387 33.1995H21.6108C21.3549 33.9147 21.2417 34.6798 21.2877 35.4482C21.3244 36.0613 21.7123 36.6151 22.2763 36.8591C23.0054 37.1744 23.7725 37.3299 24.5343 37.3299C25.6737 37.3299 26.8015 36.9822 27.774 36.3012C27.9559 36.174 28.1278 36.0363 28.2914 35.8909C28.1071 36.776 28.2575 37.7071 28.742 38.5178C29.2395 39.3505 30.0195 39.9341 30.9234 40.18V42.4595C29.3857 41.5163 27.5104 41.3337 25.8013 41.9882C25.1833 42.2249 24.7488 42.804 24.6942 43.4634C24.5277 45.4745 25.3903 47.3976 27.0015 48.6081C27.7385 49.1616 28.5898 49.5215 29.4757 49.6795C27.4509 52.4027 26.746 54.9531 26.7114 55.0815C26.6898 55.1615 26.6802 55.2417 26.6789 55.3208C24.6392 56.4234 22.9196 57.0611 19.7653 55.821C16.8795 54.6861 14.1777 53.958 11.7346 53.6574C11.1975 53.5902 10.7087 53.973 10.6426 54.51C10.5764 55.0468 10.9582 55.5357 11.4951 55.6018ZM30.9233 53.2516C30.3165 53.4576 29.7568 53.6973 29.2293 53.9517C29.5979 53.1361 30.1472 52.0965 30.9233 51.0207V53.2516ZM35.7941 52.5844C35.5834 52.577 35.3683 52.5729 35.1473 52.5729C34.3258 52.5729 33.5759 52.6407 32.8826 52.7573V49.258C33.3076 49.0177 33.5999 48.5957 33.6737 48.1082C34.3395 47.5756 35.0477 47.1111 35.7941 46.7164V52.5844ZM46.915 42.4705C46.0582 43.339 44.845 43.7292 43.6383 43.5161C43.2636 43.45 42.9081 43.3295 42.5799 43.1604C43.6866 42.7895 44.6795 42.0934 45.3975 41.1375C45.4547 41.0613 45.5079 40.9832 45.5609 40.9049C46.1465 41.2851 46.6203 41.8281 46.915 42.4705ZM41.1266 37.9297C41.9012 36.8987 43.1177 36.331 44.3992 36.3891C44.8142 37.6037 44.6059 38.9286 43.8307 39.9608C43.0514 40.9983 41.8396 41.5625 40.5577 41.5036C40.1414 40.2872 40.3481 38.9665 41.1266 37.9297ZM38.4058 40.6002C38.4418 41.2272 38.578 41.8516 38.819 42.4464C38.8741 42.5824 38.9466 42.7078 39.0332 42.8207C38.818 43.2757 38.4111 43.6283 37.9085 43.771C37.8566 43.7857 37.8052 43.8019 37.7534 43.8172V40.3397C37.9868 40.3817 38.2081 40.47 38.4058 40.6002ZM35.7941 44.5389C34.9878 44.8991 34.2159 45.3262 33.483 45.8196C33.3427 45.3356 33.1411 44.8707 32.8826 44.4381V34.8289C33.3529 34.3582 33.7428 33.8077 34.0311 33.1999H35.794V44.5389H35.7941ZM29.2313 30.8513C29.5948 29.6141 30.5327 28.6551 31.7553 28.2606C32.57 29.2524 32.8398 30.5663 32.4759 31.8047C32.1101 33.0496 31.1748 34.005 29.9521 34.3976C29.1357 33.4046 28.8657 32.0952 29.2313 30.8513ZM26.65 34.6964C25.6428 35.4013 24.3804 35.5602 23.2369 35.1345C23.2326 34.452 23.4187 33.7817 23.7689 33.1997H27.2585C27.3123 33.4426 27.3812 33.6821 27.4655 33.9167C27.2369 34.2155 26.9638 34.4768 26.65 34.6964ZM30.4237 37.5129C30.2106 37.156 30.1376 36.7511 30.1999 36.3618C30.2114 36.3591 30.223 36.3582 30.2345 36.3552C30.4701 36.2936 30.6999 36.2167 30.9233 36.127V38.0487C30.7261 37.9116 30.5553 37.7329 30.4237 37.5129ZM26.6376 43.7689C27.8521 43.354 29.1772 43.5622 30.2093 44.3375C31.2467 45.1167 31.8132 46.3273 31.7519 47.6104C30.5357 48.0266 29.2148 47.8201 28.1783 47.0416C27.1472 46.267 26.578 45.0523 26.6376 43.7689Z" fill="#7DA543" stroke="white" stroke-width="0.6" mask="url(#path-2-inside-1_183_233)"/>
<path d="M1.47348 58.1901L1.47348 58.1901C1.1104 57.9104 1.04281 57.3895 1.32247 57.0264L1.32248 57.0264C2.68195 55.2612 4.66413 54.1725 7.22855 53.7984C7.68273 53.7338 8.10348 54.0467 8.16955 54.4996C8.2357 54.953 7.92179 55.3742 7.46831 55.4405C5.36236 55.7476 3.7312 56.6183 2.63702 58.0389L2.63701 58.039C2.47368 58.2511 2.22801 58.3624 1.97903 58.3624C1.80221 58.3624 1.62435 58.3063 1.47348 58.1901Z" fill="#7DA543" stroke="white" stroke-width="0.3"/>
<path d="M1.97969 67.1906H66.9002C67.3584 67.1906 67.7299 67.562 67.7299 68.0203C67.7299 68.4786 67.3584 68.85 66.9002 68.85H1.97969C1.52147 68.85 1.15 68.4786 1.15 68.0203C1.15 67.562 1.52147 67.1906 1.97969 67.1906Z" fill="#7DA543" stroke="white" stroke-width="0.3"/>
<path d="M31.8274 59.7158C31.8274 59.2574 32.1988 58.8861 32.6571 58.8861H33.9197C34.3779 58.8861 34.7494 59.2574 34.7494 59.7158C34.7494 60.1741 34.3779 60.5455 33.9197 60.5455H32.6571C32.1988 60.5455 31.8274 60.1741 31.8274 59.7158Z" fill="#7DA543" stroke="white" stroke-width="0.3"/>
<path d="M37.4018 61.6171C37.4018 61.1588 37.7733 60.7874 38.2315 60.7874H40.303C40.7612 60.7874 41.1326 61.1588 41.1326 61.6171C41.1326 62.0754 40.7612 62.4468 40.303 62.4468H38.2315C37.7733 62.4468 37.4018 62.0754 37.4018 61.6171Z" fill="#7DA543" stroke="white" stroke-width="0.3"/>
<path d="M12.0457 61.245H10.713C10.2547 61.245 9.88328 60.8736 9.88328 60.4153C9.88328 59.957 10.2547 59.5856 10.713 59.5856H12.0457C12.5039 59.5856 12.8754 59.957 12.8754 60.4153C12.8754 60.8736 12.5039 61.245 12.0457 61.245Z" fill="#7DA543" stroke="white" stroke-width="0.3"/>
<path d="M51.2617 63.594C51.2617 63.1357 51.6332 62.7643 52.0914 62.7643H54.1567C54.6149 62.7643 54.9864 63.1357 54.9864 63.594C54.9864 64.0523 54.6149 64.4237 54.1567 64.4237H52.0914C51.6332 64.4237 51.2617 64.0523 51.2617 63.594Z" fill="#7DA543" stroke="white" stroke-width="0.3"/>
<path d="M15.0826 63.594C15.0826 63.1357 15.4541 62.7643 15.9123 62.7643H19.2964C19.7546 62.7643 20.1261 63.1357 20.1261 63.594C20.1261 64.0523 19.7546 64.4237 19.2964 64.4237H15.9123C15.4541 64.4237 15.0826 64.0523 15.0826 63.594Z" fill="#7DA543" stroke="white" stroke-width="0.3"/>
<path d="M47.9994 24.2396L47.8766 24.1536C48.884 22.7148 49.0779 20.8904 48.3954 19.2716C48.1745 18.7482 47.6644 18.3912 47.0968 18.3631L47.9994 24.2396ZM47.9994 24.2396L47.8766 24.1536C46.9136 25.5289 45.3723 26.3196 43.7323 26.3198C43.4853 26.3198 43.236 26.3018 42.9858 26.2652L42.9858 26.2652C42.9787 26.2641 42.9757 26.2634 42.9703 26.2621C42.9651 26.2608 42.9575 26.259 42.9412 26.2557L42.9116 26.2497L42.882 26.2557C42.866 26.2589 42.8583 26.2608 42.853 26.2621C42.8475 26.2634 42.8444 26.2641 42.8374 26.2652C42.5875 26.3018 42.3381 26.3198 42.091 26.3198C40.451 26.3198 38.9097 25.5291 37.9467 24.1537L37.9467 24.1537C36.9391 22.7148 36.7453 20.8903 37.4279 19.2717L37.4279 19.2717C37.6486 18.7483 38.1588 18.3912 38.7264 18.3631C40.2989 18.2862 41.7826 18.9261 42.7985 20.0922L42.9116 20.222L43.0247 20.0922C44.0409 18.9261 45.5255 18.2859 47.0967 18.3631L47.9994 24.2396ZM39.023 20.0164L38.9153 20.015L39.4289 23.1157L39.306 23.2018C39.306 23.2018 39.306 23.2018 39.306 23.2018C39.8773 24.0178 40.7527 24.528 41.7091 24.6371L41.9153 24.6606L41.8729 24.4574C41.6972 23.6159 41.741 22.7472 41.9971 21.9278L42.016 21.8674L41.9859 21.8118C41.9231 21.6954 41.8538 21.5813 41.7768 21.4714C41.1411 20.5638 40.1232 20.0297 39.023 20.0164ZM43.6194 24.5596L43.6551 24.6608L43.7625 24.6597C44.8536 24.6487 45.8764 24.1172 46.5173 23.2018C47.1537 22.2931 47.3077 21.1541 46.9437 20.1167L46.908 20.0151L46.8004 20.0164C45.7002 20.0295 44.6824 20.5637 44.0465 21.4716L44.0465 21.4716C43.406 22.3863 43.2568 23.5294 43.6194 24.5596Z" fill="#7DA543" stroke="white" stroke-width="0.3"/>
<path d="M29.116 19.1366H20.9149C20.4566 19.1366 20.0852 18.7653 20.0852 18.3069C20.0852 17.8486 20.4566 17.4773 20.9149 17.4773H29.116C29.5742 17.4773 29.9457 17.8486 29.9457 18.3069C29.9457 18.7653 29.5742 19.1366 29.116 19.1366Z" fill="#7DA543" stroke="white" stroke-width="0.3"/>
<path d="M32.8904 20.6287C33.3486 20.6287 33.7201 21.0001 33.7201 21.4584C33.7201 21.9166 33.3486 22.2881 32.8904 22.2881H20.9149C20.4566 22.2881 20.0852 21.9167 20.0852 21.4584C20.0852 21.0001 20.4566 20.6287 20.9149 20.6287H32.8904Z" fill="#7DA543" stroke="white" stroke-width="0.3"/>
<path d="M20.0852 26.3683C20.0852 25.91 20.4566 25.5386 20.9149 25.5386H25.8194C26.2776 25.5386 26.6491 25.91 26.6491 26.3683C26.6491 26.8266 26.2776 27.198 25.8194 27.198H20.9149C20.4566 27.198 20.0852 26.8266 20.0852 26.3683Z" fill="#7DA543" stroke="white" stroke-width="0.3"/>
</svg>
