<svg width="69" height="69" viewBox="0 0 69 69" fill="none" xmlns="http://www.w3.org/2000/svg"><path d="M67.715 8.368c-1.824-1.824-4.862-1.824-6.685 0l-5.996 5.993a2.792 2.792 0 0 0-3.076.588 2.79 2.79 0 0 0-.588 3.075l-1.389 1.389c-4.61-3.25-10.02-4.964-15.697-4.964C19.41 14.45 7 26.857 7 41.725 7 56.595 19.41 69 34.284 69a27.136 27.136 0 0 0 19.098-7.796.907.907 0 1 0-1.27-1.296 25.33 25.33 0 0 1-17.828 7.277c-14.044 0-25.469-11.42-25.469-25.46 0-14.039 11.425-25.461 25.469-25.461 5.194 0 10.148 1.536 14.393 4.452l-1.4 1.4a23.38 23.38 0 0 0-12.993-3.91 23.401 23.401 0 0 0-16.453 6.707.907.907 0 0 0-.014 1.284c.426.358.854.363 1.284.014a21.595 21.595 0 0 1 15.183-6.19c4.177 0 8.193 1.174 11.681 3.406l-6.53 6.528c-1.045 1.046-1.008 2.072-1.23 3.38h-13.35a2.79 2.79 0 0 0-2.788 2.786 2.79 2.79 0 0 0 2.787 2.786h3.76a.973.973 0 0 1-.001 1.943 2.79 2.79 0 0 0-2.787 2.785 2.79 2.79 0 0 0 2.787 2.787h18.796a2.79 2.79 0 0 0 2.787-2.786 2.79 2.79 0 0 0-2.788-2.787.973.973 0 0 1 0-1.943h1.88a2.79 2.79 0 0 0 2.787-2.785 2.79 2.79 0 0 0-2.787-2.786h-.034l3.317-3.316a21.552 21.552 0 0 1 3.424 11.706c0 11.967-9.74 21.703-21.711 21.703-11.971 0-21.71-9.736-21.71-21.703 0-4.566 1.402-8.935 4.054-12.633a.907.907 0 1 0-1.475-1.057 23.351 23.351 0 0 0-4.395 13.69c0 12.968 10.554 23.518 23.526 23.518S57.81 54.693 57.81 41.725a23.36 23.36 0 0 0-3.928-13.017l1.4-1.399c2.929 4.251 4.471 9.213 4.471 14.416 0 5.578-1.77 10.874-5.12 15.315a.907.907 0 0 0 .178 1.27c.448.294.871.234 1.27-.178 3.59-4.758 5.488-10.431 5.488-16.407 0-5.687-1.72-11.104-4.984-15.72l1.326-1.325c1.155.575 2.256.416 3.305-.477a2.79 2.79 0 0 0 .534-3.191l1.89-1.89a.907.907 0 1 0-1.284-1.282l-1.782 1.781-4.117-4.116 5.856-5.854c1.373-1.138 2.746-1.138 4.118 0 1.138 1.372 1.138 2.744 0 4.116l-1.272 1.27a.907.907 0 0 0 0 1.284c.427.354.855.354 1.283 0l1.272-1.272c1.6-1.78 1.826-4.859 0-6.681Zm-26.997 22.87 11.797-11.792 4.033 4.03-11.819 11.815c-.498.447-1.042.67-1.63.667a4.07 4.07 0 0 0-2.896 1.2l-3.074 3.074c-.443.368-.886.368-1.33.001-.368-.443-.368-.886 0-1.329l3.053-3.053a4.118 4.118 0 0 0 1.2-2.964 2.295 2.295 0 0 1 .666-1.65Zm8.57 3.911a.973.973 0 0 1 0 1.943h-1.88a2.79 2.79 0 0 0-2.787 2.786 2.79 2.79 0 0 0 2.788 2.786.973.973 0 0 1 0 1.943H28.613a.973.973 0 0 1 .001-1.943 2.79 2.79 0 0 0 2.787-2.786 2.79 2.79 0 0 0-2.787-2.786h-3.76a.973.973 0 0 1 0-1.943h12.134l-2.472 2.472c-1.077 1.298-1.043 2.798 0 3.895 1.161 1.223 2.633 1.186 3.896 0l3.075-3.075a2.267 2.267 0 0 1 1.613-.668h.017a4.07 4.07 0 0 0 2.896-1.198l1.426-1.426h1.85ZM59.932 22.92c-.456.457-1.107.303-1.484-.11l-5.206-5.204a.972.972 0 0 1 0-1.374c.458-.379.916-.379 1.374 0l5.316 5.314a.972.972 0 0 1 0 1.374Z" fill="#7DA543"/><path d="M35.16 24.847a2.79 2.79 0 0 0-2.787-2.786 2.79 2.79 0 0 0-2.788 2.786 2.79 2.79 0 0 0 2.788 2.786 2.79 2.79 0 0 0 2.787-2.786Zm-3.76 0a.973.973 0 0 1 1.944 0 .973.973 0 0 1-1.943 0Zm15.036 30.062a2.79 2.79 0 0 0-2.787-2.786 2.79 2.79 0 0 0-2.787 2.786 2.79 2.79 0 0 0 2.787 2.786 2.79 2.79 0 0 0 2.787-2.786Zm-3.758 0a.973.973 0 0 1 1.943 0 .973.973 0 0 1-1.944 0Zm-19.703.907a2.79 2.79 0 0 0 2.787-2.786 2.79 2.79 0 0 0-2.787-2.786 2.79 2.79 0 0 0-2.787 2.786 2.79 2.79 0 0 0 2.787 2.786Zm0-3.757c.536 0 .972.435.972.971a.973.973 0 0 1-1.944 0c0-.536.436-.971.972-.971Zm15.035 1.879a.907.907 0 1 0 0-1.815h-1.879a.908.908 0 1 0 0 1.815h1.88Zm-5.064 3.423a.907.907 0 0 0 0 1.283l1.329 1.329c.428.354.855.354 1.283 0a.907.907 0 0 0 0-1.283l-1.328-1.33a.908.908 0 0 0-1.283 0Zm-13.753-16.91a.908.908 0 0 0-1.283 1.283l1.329 1.329c.428.354.856.354 1.283 0a.907.907 0 0 0 0-1.283l-1.329-1.329ZM30.47 52.457l1.33-1.328a.907.907 0 1 0-1.284-1.283l-1.33 1.328a.907.907 0 0 0 0 1.283c.429.355.856.355 1.284 0ZM26.711 29.91l1.33-1.328a.907.907 0 1 0-1.284-1.283l-1.33 1.329a.907.907 0 0 0 0 1.283c.429.354.857.354 1.284 0Z" fill="#7DA543"/></svg>