<svg width="69" height="69" viewBox="0 0 69 69" fill="none" xmlns="http://www.w3.org/2000/svg"><mask id="a" fill="#fff"><path d="M10.79 68.2h47.044a.955.955 0 1 0 0-1.91H56c-.744-2.283-2.917-3.906-5.366-3.906h-.074a.563.563 0 0 1-.545-.461 5.66 5.66 0 0 0-4.209-4.462.955.955 0 1 0-.46 1.854 3.747 3.747 0 0 1 2.79 2.95 2.46 2.46 0 0 0 2.455 2.03c1.418-.02 2.703.788 3.345 1.994H14.688a3.762 3.762 0 0 1 3.377-1.995 2.461 2.461 0 0 0 2.423-2.03c.32-1.75 1.892-3.058 3.669-3.058h.043a2.475 2.475 0 0 0 2.464-2.03 3.734 3.734 0 0 1 6.047-2.202 2.523 2.523 0 0 0 3.202 0 3.738 3.738 0 0 1 2.372-.85 3.72 3.72 0 0 1 3.174 1.766.955.955 0 1 0 1.62-1.01 5.618 5.618 0 0 0-4.794-2.666c-1.071 0-2.12.307-3.018.875v-5.44a13.171 13.171 0 0 0 4.842-1.164 6.78 6.78 0 0 0 7.776 5.73 1.952 1.952 0 0 0 1.63-2.048 6.778 6.778 0 0 0-5.68-6.225 13.215 13.215 0 0 0 1.554-1.812c.167-.011.333-.044.497-.1 3.75-1.31 5.588-5.563 3.945-9.198a1.952 1.952 0 0 0-2.405-1.032c-3.759 1.312-5.585 5.57-3.946 9.198.046.1.1.196.162.285a11.255 11.255 0 0 1-8.376 4.454v-9.156c.628.233 3.123.468 5.229-1.264a6.264 6.264 0 0 0 2.27-4.5 1.861 1.861 0 0 0-1.586-1.927 6.246 6.246 0 0 0-5.913 2.484V27.1c5.307-.423 9.799-4.333 10.873-9.612a.955.955 0 0 0-1.872-.38c-.958 4.706-5.145 8.122-9.956 8.122-5.602 0-10.16-4.558-10.16-10.16 0-5.603 4.558-10.16 10.16-10.16 4.811 0 8.998 3.415 9.956 8.121a.955.955 0 1 0 1.872-.38C45.001 7.059 40.027 3 34.312 3c-6.656 0-12.07 5.415-12.07 12.07 0 6.335 4.904 11.545 11.114 12.033v11.261a11.255 11.255 0 0 1-8.375-4.454c.443-.651 1.344-3.122.215-5.753a6.8 6.8 0 0 0-3.999-3.73 1.953 1.953 0 0 0-2.405 1.032 6.799 6.799 0 0 0-.054 5.468c1.1 2.561 3.538 3.764 4.496 3.83a13.2 13.2 0 0 0 1.555 1.812 6.778 6.778 0 0 0-5.68 6.225 1.952 1.952 0 0 0 1.63 2.048 6.78 6.78 0 0 0 7.775-5.73 13.174 13.174 0 0 0 4.843 1.164V53.09a5.644 5.644 0 0 0-8.571 3.74.574.574 0 0 1-.557.467h-.006c-2.711-.029-5.126 1.956-5.613 4.625a.564.564 0 0 1-.546.463h-.076c-2.449 0-4.621 1.622-5.365 3.904H10.79a.955.955 0 1 0 0 1.91Zm37.265-34.596a.024.024 0 0 1 .008 0c.011 0 .023.006.027.015a4.873 4.873 0 0 1-2.834 6.607c-.012.005-.03-.003-.035-.015a4.873 4.873 0 0 1 2.834-6.606Zm-6.072 12.22A4.874 4.874 0 0 1 47.61 50.3c0 .013-.011.028-.024.03a4.874 4.874 0 0 1-5.626-4.477c0-.013.011-.028.024-.03Zm-1.126-15.106Zm-.003.056a4.341 4.341 0 0 1-4.886 4.02 4.341 4.341 0 0 1 4.886-4.02Zm-17.452 2.064c-.006.012-.024.019-.035.015a4.884 4.884 0 0 1-2.873-2.679 4.883 4.883 0 0 1 .038-3.928c.006-.012.024-.02.036-.015a4.884 4.884 0 0 1 2.873 2.679 4.884 4.884 0 0 1-.04 3.928Zm-2.364 10.118c-.013-.002-.024-.017-.024-.03a4.872 4.872 0 0 1 5.626-4.476.031.031 0 0 1 .024.03 4.873 4.873 0 0 1-5.626 4.476Z"/></mask><path d="M10.79 68.2h47.044a.955.955 0 1 0 0-1.91H56c-.744-2.283-2.917-3.906-5.366-3.906h-.074a.563.563 0 0 1-.545-.461 5.66 5.66 0 0 0-4.209-4.462.955.955 0 1 0-.46 1.854 3.747 3.747 0 0 1 2.79 2.95 2.46 2.46 0 0 0 2.455 2.03c1.418-.02 2.703.788 3.345 1.994H14.688a3.762 3.762 0 0 1 3.377-1.995 2.461 2.461 0 0 0 2.423-2.03c.32-1.75 1.892-3.058 3.669-3.058h.043a2.475 2.475 0 0 0 2.464-2.03 3.734 3.734 0 0 1 6.047-2.202 2.523 2.523 0 0 0 3.202 0 3.738 3.738 0 0 1 2.372-.85 3.72 3.72 0 0 1 3.174 1.766.955.955 0 1 0 1.62-1.01 5.618 5.618 0 0 0-4.794-2.666c-1.071 0-2.12.307-3.018.875v-5.44a13.171 13.171 0 0 0 4.842-1.164 6.78 6.78 0 0 0 7.776 5.73 1.952 1.952 0 0 0 1.63-2.048 6.778 6.778 0 0 0-5.68-6.225 13.215 13.215 0 0 0 1.554-1.812c.167-.011.333-.044.497-.1 3.75-1.31 5.588-5.563 3.945-9.198a1.952 1.952 0 0 0-2.405-1.032c-3.759 1.312-5.585 5.57-3.946 9.198.046.1.1.196.162.285a11.255 11.255 0 0 1-8.376 4.454v-9.156c.628.233 3.123.468 5.229-1.264a6.264 6.264 0 0 0 2.27-4.5 1.861 1.861 0 0 0-1.586-1.927 6.246 6.246 0 0 0-5.913 2.484V27.1c5.307-.423 9.799-4.333 10.873-9.612a.955.955 0 0 0-1.872-.38c-.958 4.706-5.145 8.122-9.956 8.122-5.602 0-10.16-4.558-10.16-10.16 0-5.603 4.558-10.16 10.16-10.16 4.811 0 8.998 3.415 9.956 8.121a.955.955 0 1 0 1.872-.38C45.001 7.059 40.027 3 34.312 3c-6.656 0-12.07 5.415-12.07 12.07 0 6.335 4.904 11.545 11.114 12.033v11.261a11.255 11.255 0 0 1-8.375-4.454c.443-.651 1.344-3.122.215-5.753a6.8 6.8 0 0 0-3.999-3.73 1.953 1.953 0 0 0-2.405 1.032 6.799 6.799 0 0 0-.054 5.468c1.1 2.561 3.538 3.764 4.496 3.83a13.2 13.2 0 0 0 1.555 1.812 6.778 6.778 0 0 0-5.68 6.225 1.952 1.952 0 0 0 1.63 2.048 6.78 6.78 0 0 0 7.775-5.73 13.174 13.174 0 0 0 4.843 1.164V53.09a5.644 5.644 0 0 0-8.571 3.74.574.574 0 0 1-.557.467h-.006c-2.711-.029-5.126 1.956-5.613 4.625a.564.564 0 0 1-.546.463h-.076c-2.449 0-4.621 1.622-5.365 3.904H10.79a.955.955 0 1 0 0 1.91Zm37.265-34.596a.024.024 0 0 1 .008 0c.011 0 .023.006.027.015a4.873 4.873 0 0 1-2.834 6.607c-.012.005-.03-.003-.035-.015a4.873 4.873 0 0 1 2.834-6.606Zm-6.072 12.22A4.874 4.874 0 0 1 47.61 50.3c0 .013-.011.028-.024.03a4.874 4.874 0 0 1-5.626-4.477c0-.013.011-.028.024-.03Zm-1.126-15.106Zm-.003.056a4.341 4.341 0 0 1-4.886 4.02 4.341 4.341 0 0 1 4.886-4.02Zm-17.452 2.064c-.006.012-.024.019-.035.015a4.884 4.884 0 0 1-2.873-2.679 4.883 4.883 0 0 1 .038-3.928c.006-.012.024-.02.036-.015a4.884 4.884 0 0 1 2.873 2.679 4.884 4.884 0 0 1-.04 3.928Zm-2.364 10.118c-.013-.002-.024-.017-.024-.03a4.872 4.872 0 0 1 5.626-4.476.031.031 0 0 1 .024.03 4.873 4.873 0 0 1-5.626 4.476Z" fill="#7DA543" stroke="#fff" stroke-width=".4" mask="url(#a)"/><path d="M36.457 12.165a.855.855 0 0 0 1.228-1.19l-1.228 1.19Zm0 0-.002-.001m.002 0h-.002m0 0a3.512 3.512 0 0 0-.593-.454c-.354-.218-.846-.438-1.394-.438-.502 0-.931.173-1.236.427-.303.253-.489.592-.489.925 0 .142.069.29.182.432.115.144.282.292.497.437.43.29 1.06.574 1.872.788.938.247 1.636.642 2.098 1.172.46.53.696 1.203.696 2.025 0 1.294-.98 2.674-2.84 3.019l-.081.015v.899c0 .474-.366.88-.829.895a.855.855 0 0 1-.881-.855V20.5l-.08-.016a4.378 4.378 0 0 1-1.874-.884c-.222-.179-.314-.39-.322-.594a.877.877 0 0 1 .21-.582.912.912 0 0 1 .539-.323.821.821 0 0 1 .66.185l.061-.079-.062.079c.36.282.935.584 1.744.584 1.465 0 2.045-.801 2.045-1.391v-.006c0-.223 0-.517-.2-.8-.2-.287-.587-.544-1.32-.738-2.47-.65-3.825-1.872-3.825-3.31 0-1.345.98-2.498 2.352-2.905l.072-.022m2.998 2.467-2.998-2.467m1.71-.07V8.73c0-.475-.366-.881-.83-.895l.83 1.792Zm0 0 .08.016m-.08-.016.08.016m0 0c1.42.293 2.392 1.285 2.438 1.332l-2.439-1.332Zm-1.79.054v-.074m0 .074v-.074m0 0V8.69c0-.481.396-.87.88-.855l-.88 1.788Z" fill="#7DA543" stroke="#fff" stroke-width=".2"/></svg>